<?xml version="1.0" encoding="utf-8" standalone="no"?>
<!DOCTYPE svg PUBLIC "-//W3C//DTD SVG 1.1//EN"
  "http://www.w3.org/Graphics/SVG/1.1/DTD/svg11.dtd">
<svg xmlns:xlink="http://www.w3.org/1999/xlink" width="249.106563pt" height="169.816641pt" viewBox="0 0 249.106563 169.816641" xmlns="http://www.w3.org/2000/svg" version="1.1">
 <metadata>
  <rdf:RDF xmlns:dc="http://purl.org/dc/elements/1.1/" xmlns:cc="http://creativecommons.org/ns#" xmlns:rdf="http://www.w3.org/1999/02/22-rdf-syntax-ns#">
   <cc:Work>
    <dc:type rdf:resource="http://purl.org/dc/dcmitype/StillImage"/>
    <dc:date>2026-05-20T17:52:26.540598</dc:date>
    <dc:format>image/svg+xml</dc:format>
    <dc:creator>
     <cc:Agent>
      <dc:title>Matplotlib v3.10.9, https://matplotlib.org/</dc:title>
     </cc:Agent>
    </dc:creator>
   </cc:Work>
  </rdf:RDF>
 </metadata>
 <defs>
  <style type="text/css">*{stroke-linejoin: round; stroke-linecap: butt}</style>
 </defs>
 <g id="figure_1">
  <g id="patch_1">
   <path d="M 0 169.816641 
L 249.106563 169.816641 
L 249.106563 0 
L 0 0 
z
" style="fill: #ffffff"/>
  </g>
  <g id="axes_1">
   <g id="patch_2">
    <path d="M 47.394219 137.099453 
L 236.340469 137.099453 
L 236.340469 9.859453 
L 47.394219 9.859453 
z
" style="fill: #ffffff"/>
   </g>
   <g id="matplotlib.axis_1">
    <g id="xtick_1">
     <g id="line2d_1">
      <defs>
       <path id="mda508b5b2d" d="M 0 0 
L 0 3.5 
" style="stroke: #000000; stroke-width: 0.8"/>
      </defs>
      <g>
       <use xlink:href="#mda508b5b2d" x="47.394219" y="137.099453" style="stroke: #000000; stroke-width: 0.8"/>
      </g>
     </g>
     <g id="text_1">
      <text style="font-size: 7px; font-family: 'Liberation Serif'; text-anchor: middle" x="47.394219" y="149.418359" transform="rotate(-0 47.394219 149.418359)">0.0</text>
     </g>
    </g>
    <g id="xtick_2">
     <g id="line2d_2">
      <g>
       <use xlink:href="#mda508b5b2d" x="85.183469" y="137.099453" style="stroke: #000000; stroke-width: 0.8"/>
      </g>
     </g>
     <g id="text_2">
      <text style="font-size: 7px; font-family: 'Liberation Serif'; text-anchor: middle" x="85.183469" y="149.418359" transform="rotate(-0 85.183469 149.418359)">0.2</text>
     </g>
    </g>
    <g id="xtick_3">
     <g id="line2d_3">
      <g>
       <use xlink:href="#mda508b5b2d" x="122.972719" y="137.099453" style="stroke: #000000; stroke-width: 0.8"/>
      </g>
     </g>
     <g id="text_3">
      <text style="font-size: 7px; font-family: 'Liberation Serif'; text-anchor: middle" x="122.972719" y="149.418359" transform="rotate(-0 122.972719 149.418359)">0.4</text>
     </g>
    </g>
    <g id="xtick_4">
     <g id="line2d_4">
      <g>
       <use xlink:href="#mda508b5b2d" x="160.761969" y="137.099453" style="stroke: #000000; stroke-width: 0.8"/>
      </g>
     </g>
     <g id="text_4">
      <text style="font-size: 7px; font-family: 'Liberation Serif'; text-anchor: middle" x="160.761969" y="149.418359" transform="rotate(-0 160.761969 149.418359)">0.6</text>
     </g>
    </g>
    <g id="xtick_5">
     <g id="line2d_5">
      <g>
       <use xlink:href="#mda508b5b2d" x="198.551219" y="137.099453" style="stroke: #000000; stroke-width: 0.8"/>
      </g>
     </g>
     <g id="text_5">
      <text style="font-size: 7px; font-family: 'Liberation Serif'; text-anchor: middle" x="198.551219" y="149.418359" transform="rotate(-0 198.551219 149.418359)">0.8</text>
     </g>
    </g>
    <g id="xtick_6">
     <g id="line2d_6">
      <g>
       <use xlink:href="#mda508b5b2d" x="236.340469" y="137.099453" style="stroke: #000000; stroke-width: 0.8"/>
      </g>
     </g>
     <g id="text_6">
      <text style="font-size: 7px; font-family: 'Liberation Serif'; text-anchor: middle" x="236.340469" y="149.418359" transform="rotate(-0 236.340469 149.418359)">1.0</text>
     </g>
    </g>
    <g id="text_7">
     <text style="font-size: 8px; font-family: 'Liberation Serif'; text-anchor: middle" x="141.867344" y="160.952891" transform="rotate(-0 141.867344 160.952891)">Threshold probability</text>
    </g>
   </g>
   <g id="matplotlib.axis_2">
    <g id="ytick_1">
     <g id="line2d_7">
      <defs>
       <path id="mc02092c112" d="M 0 0 
L -3.5 0 
" style="stroke: #000000; stroke-width: 0.8"/>
      </defs>
      <g>
       <use xlink:href="#mc02092c112" x="47.394219" y="137.099453" style="stroke: #000000; stroke-width: 0.8"/>
      </g>
     </g>
     <g id="text_8">
      <text style="font-size: 7px; font-family: 'Liberation Serif'; text-anchor: end" x="40.394219" y="139.758906" transform="rotate(-0 40.394219 139.758906)">−0.05</text>
     </g>
    </g>
    <g id="ytick_2">
     <g id="line2d_8">
      <g>
       <use xlink:href="#mc02092c112" x="47.394219" y="115.892786" style="stroke: #000000; stroke-width: 0.8"/>
      </g>
     </g>
     <g id="text_9">
      <text style="font-size: 7px; font-family: 'Liberation Serif'; text-anchor: end" x="40.394219" y="118.55224" transform="rotate(-0 40.394219 118.55224)">0.00</text>
     </g>
    </g>
    <g id="ytick_3">
     <g id="line2d_9">
      <g>
       <use xlink:href="#mc02092c112" x="47.394219" y="94.68612" style="stroke: #000000; stroke-width: 0.8"/>
      </g>
     </g>
     <g id="text_10">
      <text style="font-size: 7px; font-family: 'Liberation Serif'; text-anchor: end" x="40.394219" y="97.345573" transform="rotate(-0 40.394219 97.345573)">0.05</text>
     </g>
    </g>
    <g id="ytick_4">
     <g id="line2d_10">
      <g>
       <use xlink:href="#mc02092c112" x="47.394219" y="73.479453" style="stroke: #000000; stroke-width: 0.8"/>
      </g>
     </g>
     <g id="text_11">
      <text style="font-size: 7px; font-family: 'Liberation Serif'; text-anchor: end" x="40.394219" y="76.138906" transform="rotate(-0 40.394219 76.138906)">0.10</text>
     </g>
    </g>
    <g id="ytick_5">
     <g id="line2d_11">
      <g>
       <use xlink:href="#mc02092c112" x="47.394219" y="52.272786" style="stroke: #000000; stroke-width: 0.8"/>
      </g>
     </g>
     <g id="text_12">
      <text style="font-size: 7px; font-family: 'Liberation Serif'; text-anchor: end" x="40.394219" y="54.93224" transform="rotate(-0 40.394219 54.93224)">0.15</text>
     </g>
    </g>
    <g id="ytick_6">
     <g id="line2d_12">
      <g>
       <use xlink:href="#mc02092c112" x="47.394219" y="31.06612" style="stroke: #000000; stroke-width: 0.8"/>
      </g>
     </g>
     <g id="text_13">
      <text style="font-size: 7px; font-family: 'Liberation Serif'; text-anchor: end" x="40.394219" y="33.725573" transform="rotate(-0 40.394219 33.725573)">0.20</text>
     </g>
    </g>
    <g id="ytick_7">
     <g id="line2d_13">
      <g>
       <use xlink:href="#mc02092c112" x="47.394219" y="9.859453" style="stroke: #000000; stroke-width: 0.8"/>
      </g>
     </g>
     <g id="text_14">
      <text style="font-size: 7px; font-family: 'Liberation Serif'; text-anchor: end" x="40.394219" y="12.518906" transform="rotate(-0 40.394219 12.518906)">0.25</text>
     </g>
    </g>
    <g id="text_15">
     <text style="font-size: 8px; font-family: 'Liberation Serif'; text-anchor: middle" x="13.27875" y="73.479453" transform="rotate(-90 13.27875 73.479453)">Net benefit</text>
    </g>
   </g>
   <g id="line2d_14">
    <path d="M 49.283681 44.454953 
L 51.173144 47.323753 
L 53.062606 49.471281 
L 54.952069 52.333278 
L 56.841531 53.945633 
L 58.730994 55.437845 
L 60.620456 57.430472 
L 62.509919 58.542133 
L 64.399381 60.544292 
L 66.288844 61.507855 
L 68.178306 61.770665 
L 70.067769 62.440108 
L 71.957231 64.591045 
L 73.846694 65.296793 
L 75.736156 66.238747 
L 77.625619 67.104367 
L 79.515081 67.228712 
L 81.404544 67.583724 
L 83.294006 68.305971 
L 85.183469 67.412998 
L 87.072931 68.190749 
L 88.962394 69.22775 
L 90.851856 69.33549 
L 92.741319 70.701383 
L 94.630781 71.301751 
L 96.520244 73.207591 
L 98.409706 74.071822 
L 100.299169 74.931254 
L 102.188631 74.09143 
L 104.078094 75.449755 
L 105.967556 75.720277 
L 107.857019 74.961754 
L 109.746481 76.099815 
L 111.635944 77.272362 
L 113.525406 76.805833 
L 115.414869 77.394131 
L 117.304331 78.577217 
L 119.193794 77.891724 
L 121.083256 77.744756 
L 122.972719 77.523756 
L 124.862181 78.666215 
L 126.751644 80.885069 
L 128.641106 81.326093 
L 130.530569 81.745831 
L 132.420031 82.143124 
L 134.309494 81.633352 
L 136.198956 82.063081 
L 138.088419 81.352682 
L 139.977881 81.529426 
L 141.867344 83.745761 
L 143.756806 83.893904 
L 145.646269 83.918595 
L 147.535731 85.11372 
L 149.425194 86.360807 
L 151.314656 87.66332 
L 153.204119 87.705219 
L 155.093581 90.112464 
L 156.983044 91.547958 
L 158.872506 91.561206 
L 160.761969 91.523267 
L 162.651431 93.052179 
L 164.540894 94.661559 
L 166.430356 97.394934 
L 168.319819 99.185551 
L 170.209281 101.078489 
L 172.098744 100.093774 
L 173.988206 99.929259 
L 175.877669 101.76365 
L 177.767131 101.441678 
L 179.656594 103.448777 
L 181.546056 105.594296 
L 183.435519 107.893066 
L 185.324981 110.362115 
L 187.214444 112.14363 
L 189.103906 109.670782 
L 190.993369 108.979448 
L 192.882831 104.666125 
L 194.772294 107.125416 
L 196.661756 109.818925 
L 198.551219 112.781784 
L 200.440681 117.093524 
L 202.330144 121.769124 
L 204.219606 127.909796 
L 206.109069 123.670293 
L 207.998531 123.151792 
L 209.887994 127.596081 
L 211.777456 133.761108 
L 213.666919 140.780806 
L 215.556381 147.851266 
L 217.445844 157.372819 
L 219.330094 170.816641 
" clip-path="url(#pba7302a5cc)" style="fill: none; stroke: #6366f1; stroke-width: 1.2; stroke-linecap: square"/>
   </g>
   <g id="line2d_15">
    <path d="M 49.283681 42.663769 
L 51.173144 46.244426 
L 53.062606 49.89891 
L 54.952069 53.629529 
L 56.841531 57.438688 
L 58.730994 61.328893 
L 60.620456 65.302757 
L 62.509919 69.363011 
L 64.399381 73.5125 
L 66.288844 77.754201 
L 68.178306 82.091221 
L 70.067769 86.526809 
L 71.957231 91.064365 
L 73.846694 95.707445 
L 75.736156 100.459774 
L 77.625619 105.325254 
L 79.515081 110.307975 
L 81.404544 115.412225 
L 83.294006 120.642506 
L 85.183469 126.003544 
L 87.072931 131.500305 
L 88.962394 137.138008 
L 90.851856 142.922145 
L 92.741319 148.858497 
L 94.630781 154.95315 
L 96.520244 161.212525 
L 98.409706 167.643389 
L 99.316846 170.816641 
" clip-path="url(#pba7302a5cc)" style="fill: none; stroke-dasharray: 4.44,1.92; stroke-dashoffset: 0; stroke: #6b7280; stroke-width: 1.2"/>
   </g>
   <g id="line2d_16">
    <path d="M 49.283681 115.892786 
L 51.173144 115.892786 
L 53.062606 115.892786 
L 54.952069 115.892786 
L 56.841531 115.892786 
L 58.730994 115.892786 
L 60.620456 115.892786 
L 62.509919 115.892786 
L 64.399381 115.892786 
L 66.288844 115.892786 
L 68.178306 115.892786 
L 70.067769 115.892786 
L 71.957231 115.892786 
L 73.846694 115.892786 
L 75.736156 115.892786 
L 77.625619 115.892786 
L 79.515081 115.892786 
L 81.404544 115.892786 
L 83.294006 115.892786 
L 85.183469 115.892786 
L 87.072931 115.892786 
L 88.962394 115.892786 
L 90.851856 115.892786 
L 92.741319 115.892786 
L 94.630781 115.892786 
L 96.520244 115.892786 
L 98.409706 115.892786 
L 100.299169 115.892786 
L 102.188631 115.892786 
L 104.078094 115.892786 
L 105.967556 115.892786 
L 107.857019 115.892786 
L 109.746481 115.892786 
L 111.635944 115.892786 
L 113.525406 115.892786 
L 115.414869 115.892786 
L 117.304331 115.892786 
L 119.193794 115.892786 
L 121.083256 115.892786 
L 122.972719 115.892786 
L 124.862181 115.892786 
L 126.751644 115.892786 
L 128.641106 115.892786 
L 130.530569 115.892786 
L 132.420031 115.892786 
L 134.309494 115.892786 
L 136.198956 115.892786 
L 138.088419 115.892786 
L 139.977881 115.892786 
L 141.867344 115.892786 
L 143.756806 115.892786 
L 145.646269 115.892786 
L 147.535731 115.892786 
L 149.425194 115.892786 
L 151.314656 115.892786 
L 153.204119 115.892786 
L 155.093581 115.892786 
L 156.983044 115.892786 
L 158.872506 115.892786 
L 160.761969 115.892786 
L 162.651431 115.892786 
L 164.540894 115.892786 
L 166.430356 115.892786 
L 168.319819 115.892786 
L 170.209281 115.892786 
L 172.098744 115.892786 
L 173.988206 115.892786 
L 175.877669 115.892786 
L 177.767131 115.892786 
L 179.656594 115.892786 
L 181.546056 115.892786 
L 183.435519 115.892786 
L 185.324981 115.892786 
L 187.214444 115.892786 
L 189.103906 115.892786 
L 190.993369 115.892786 
L 192.882831 115.892786 
L 194.772294 115.892786 
L 196.661756 115.892786 
L 198.551219 115.892786 
L 200.440681 115.892786 
L 202.330144 115.892786 
L 204.219606 115.892786 
L 206.109069 115.892786 
L 207.998531 115.892786 
L 209.887994 115.892786 
L 211.777456 115.892786 
L 213.666919 115.892786 
L 215.556381 115.892786 
L 217.445844 115.892786 
L 219.335306 115.892786 
L 221.224769 115.892786 
L 223.114231 115.892786 
L 225.003694 115.892786 
L 226.893156 115.892786 
L 228.782619 115.892786 
L 230.672081 115.892786 
L 232.561544 115.892786 
L 234.451006 115.892786 
" clip-path="url(#pba7302a5cc)" style="fill: none; stroke-dasharray: 1.2,1.98; stroke-dashoffset: 0; stroke: #1f2937; stroke-width: 1.2"/>
   </g>
   <g id="line2d_17">
    <path d="M 49.283681 42.548547 
L 51.173144 45.376731 
L 53.062606 48.787074 
L 54.952069 51.901194 
L 56.841531 53.781896 
L 58.730994 54.996568 
L 60.620456 56.527277 
L 62.509919 57.910915 
L 64.399381 59.074258 
L 66.288844 60.125187 
L 68.178306 60.83853 
L 70.067769 61.591653 
L 71.957231 63.494446 
L 73.846694 64.742118 
L 75.736156 65.445747 
L 77.625619 66.808081 
L 79.515081 66.029289 
L 81.404544 67.204334 
L 83.294006 67.384193 
L 85.183469 66.894498 
L 87.072931 67.836331 
L 88.962394 68.323698 
L 90.851856 69.120009 
L 92.741319 69.22775 
L 94.630781 69.573417 
L 96.520244 70.516994 
L 98.409706 69.923819 
L 100.299169 70.783251 
L 102.188631 69.943426 
L 104.078094 69.375893 
L 105.967556 69.603475 
L 107.857019 70.264751 
L 109.746481 70.404049 
L 111.635944 70.48472 
L 113.525406 70.504058 
L 115.414869 71.496189 
L 117.304331 68.338892 
L 119.193794 69.294653 
L 121.083256 69.99275 
L 122.972719 68.882083 
L 124.862181 68.348936 
L 126.751644 66.510092 
L 128.641106 67.517608 
L 130.530569 67.450034 
L 132.420031 65.645383 
L 134.309494 65.579043 
L 136.198956 67.349409 
L 138.088419 71.062444 
L 139.977881 71.728752 
L 141.867344 72.338752 
L 143.756806 70.772669 
L 145.646269 70.091917 
L 147.535731 71.588581 
L 149.425194 72.06823 
L 151.314656 72.569197 
L 153.204119 75.166936 
L 155.093581 75.715034 
L 156.983044 76.289232 
L 158.872506 77.92844 
L 160.761969 77.523756 
L 162.651431 79.092552 
L 164.540894 82.763339 
L 166.430356 83.353383 
L 168.319819 81.556537 
L 170.209281 84.042047 
L 172.098744 85.514763 
L 173.988206 81.766032 
L 175.877669 84.134636 
L 177.767131 86.522247 
L 179.656594 88.930765 
L 181.546056 90.325353 
L 183.435519 89.078908 
L 185.324981 91.427249 
L 187.214444 92.759691 
L 189.103906 95.15277 
L 190.993369 97.572439 
L 192.882831 95.513466 
L 194.772294 95.718407 
L 196.661756 96.979867 
L 198.551219 95.15277 
L 200.440681 95.15277 
L 202.330144 98.263773 
L 204.219606 101.374775 
L 206.109069 102.411776 
L 207.998531 104.485777 
L 209.887994 104.485777 
L 211.777456 106.559779 
L 213.666919 107.59678 
L 215.556381 109.670782 
L 217.445844 110.707782 
L 219.335306 110.707782 
L 221.224769 111.744783 
L 223.114231 112.781784 
L 225.003694 114.855786 
L 226.893156 115.892786 
L 228.782619 115.892786 
L 230.672081 115.892786 
L 232.561544 115.892786 
L 234.451006 115.892786 
" clip-path="url(#pba7302a5cc)" style="fill: none; stroke: #10b981; stroke-width: 1.2; stroke-linecap: square"/>
   </g>
   <g id="line2d_18">
    <path d="M 49.283681 44.234983 
L 51.173144 44.699506 
L 53.062606 46.167845 
L 54.952069 46.672982 
L 56.841531 47.887365 
L 58.730994 48.289159 
L 60.620456 48.733046 
L 62.509919 50.020691 
L 64.399381 50.208471 
L 66.288844 50.33129 
L 68.178306 51.552129 
L 70.067769 51.975827 
L 71.957231 53.291312 
L 73.846694 53.552156 
L 75.736156 53.977738 
L 77.625619 54.413452 
L 79.515081 55.471872 
L 81.404544 55.898495 
L 83.294006 55.605912 
L 85.183469 56.005989 
L 87.072931 56.140537 
L 88.962394 56.544432 
L 90.851856 56.958818 
L 92.741319 57.384109 
L 94.630781 57.475074 
L 96.520244 58.941823 
L 98.409706 59.383345 
L 100.299169 59.433853 
L 102.188631 60.917138 
L 104.078094 60.931743 
L 105.967556 61.382613 
L 107.857019 61.846744 
L 109.746481 63.36173 
L 111.635944 64.356988 
L 113.525406 64.840439 
L 115.414869 64.755684 
L 117.304331 65.24435 
L 119.193794 65.748779 
L 121.083256 65.606747 
L 122.972719 65.425413 
L 124.862181 65.202781 
L 126.751644 65.687644 
L 128.641106 66.189519 
L 130.530569 67.74632 
L 132.420031 68.473567 
L 134.309494 68.113934 
L 136.198956 68.621202 
L 138.088419 70.184981 
L 139.977881 70.732418 
L 141.867344 73.375753 
L 143.756806 72.888998 
L 145.646269 73.46217 
L 147.535731 74.059732 
L 149.425194 75.720277 
L 151.314656 75.104088 
L 153.204119 75.732573 
L 155.093581 76.39029 
L 156.983044 77.079327 
L 158.872506 79.875978 
L 160.761969 80.634759 
L 162.651431 81.432452 
L 164.540894 82.272128 
L 166.430356 84.194194 
L 168.319819 83.284872 
L 170.209281 84.19019 
L 172.098744 86.185763 
L 173.988206 85.097005 
L 175.877669 86.079013 
L 177.767131 87.124377 
L 179.656594 88.239431 
L 181.546056 89.431386 
L 183.435519 92.782483 
L 185.324981 94.154177 
L 187.214444 96.668387 
L 189.103906 99.300773 
L 190.993369 101.029108 
L 192.882831 99.436034 
L 194.772294 101.280502 
L 196.661756 99.399535 
L 198.551219 101.374775 
L 200.440681 103.557935 
L 202.330144 105.983668 
L 204.219606 109.731782 
L 206.109069 112.781784 
L 207.998531 117.275454 
L 209.887994 121.225934 
L 211.777456 125.784179 
L 213.666919 133.176133 
L 215.556381 139.460987 
L 217.445844 138.706804 
L 219.335306 146.772366 
L 221.224769 157.891319 
L 223.10881 170.816641 
" clip-path="url(#pba7302a5cc)" style="fill: none; stroke: #f97316; stroke-width: 1.2; stroke-linecap: square"/>
   </g>
   <g id="patch_3">
    <path d="M 47.394219 137.099453 
L 47.394219 9.859453 
" style="fill: none; stroke: #000000; stroke-width: 0.6; stroke-linejoin: miter; stroke-linecap: square"/>
   </g>
   <g id="patch_4">
    <path d="M 47.394219 137.099453 
L 236.340469 137.099453 
" style="fill: none; stroke: #000000; stroke-width: 0.6; stroke-linejoin: miter; stroke-linecap: square"/>
   </g>
   <g id="legend_1">
    <g id="line2d_19">
     <path d="M 143.297344 19.028359 
L 150.297344 19.028359 
L 157.297344 19.028359 
" style="fill: none; stroke: #6366f1; stroke-width: 1.2; stroke-linecap: square"/>
    </g>
    <g id="text_16">
     <text style="font-size: 7px; font-family: 'Liberation Serif'; text-anchor: start" x="162.897344" y="21.478359" transform="rotate(-0 162.897344 21.478359)">Logistic Regression</text>
    </g>
    <g id="line2d_20">
     <path d="M 143.297344 29.303047 
L 150.297344 29.303047 
L 157.297344 29.303047 
" style="fill: none; stroke-dasharray: 4.44,1.92; stroke-dashoffset: 0; stroke: #6b7280; stroke-width: 1.2"/>
    </g>
    <g id="text_17">
     <text style="font-size: 7px; font-family: 'Liberation Serif'; text-anchor: start" x="162.897344" y="31.753047" transform="rotate(-0 162.897344 31.753047)">Treat all</text>
    </g>
    <g id="line2d_21">
     <path d="M 143.297344 39.577734 
L 150.297344 39.577734 
L 157.297344 39.577734 
" style="fill: none; stroke-dasharray: 1.2,1.98; stroke-dashoffset: 0; stroke: #1f2937; stroke-width: 1.2"/>
    </g>
    <g id="text_18">
     <text style="font-size: 7px; font-family: 'Liberation Serif'; text-anchor: start" x="162.897344" y="42.027734" transform="rotate(-0 162.897344 42.027734)">Treat none</text>
    </g>
    <g id="line2d_22">
     <path d="M 143.297344 49.852422 
L 150.297344 49.852422 
L 157.297344 49.852422 
" style="fill: none; stroke: #10b981; stroke-width: 1.2; stroke-linecap: square"/>
    </g>
    <g id="text_19">
     <text style="font-size: 7px; font-family: 'Liberation Serif'; text-anchor: start" x="162.897344" y="52.302422" transform="rotate(-0 162.897344 52.302422)">Random Forest</text>
    </g>
    <g id="line2d_23">
     <path d="M 143.297344 60.127109 
L 150.297344 60.127109 
L 157.297344 60.127109 
" style="fill: none; stroke: #f97316; stroke-width: 1.2; stroke-linecap: square"/>
    </g>
    <g id="text_20">
     <text style="font-size: 7px; font-family: 'Liberation Serif'; text-anchor: start" x="162.897344" y="62.577109" transform="rotate(-0 162.897344 62.577109)">XGBoost</text>
    </g>
   </g>
  </g>
 </g>
 <defs>
  <clipPath id="pba7302a5cc">
   <rect x="47.394219" y="9.859453" width="188.94625" height="127.24"/>
  </clipPath>
 </defs>
</svg>
