<?xml version="1.0" encoding="utf-8" standalone="no"?>
<!DOCTYPE svg PUBLIC "-//W3C//DTD SVG 1.1//EN"
  "http://www.w3.org/Graphics/SVG/1.1/DTD/svg11.dtd">
<svg xmlns:xlink="http://www.w3.org/1999/xlink" width="249.106563pt" height="169.816641pt" viewBox="0 0 249.106563 169.816641" xmlns="http://www.w3.org/2000/svg" version="1.1">
 <metadata>
  <rdf:RDF xmlns:dc="http://purl.org/dc/elements/1.1/" xmlns:cc="http://creativecommons.org/ns#" xmlns:rdf="http://www.w3.org/1999/02/22-rdf-syntax-ns#">
   <cc:Work>
    <dc:type rdf:resource="http://purl.org/dc/dcmitype/StillImage"/>
    <dc:date>2026-05-21T17:10:48.063184</dc:date>
    <dc:format>image/svg+xml</dc:format>
    <dc:creator>
     <cc:Agent>
      <dc:title>Matplotlib v3.10.9, https://matplotlib.org/</dc:title>
     </cc:Agent>
    </dc:creator>
   </cc:Work>
  </rdf:RDF>
 </metadata>
 <defs>
  <style type="text/css">*{stroke-linejoin: round; stroke-linecap: butt}</style>
 </defs>
 <g id="figure_1">
  <g id="patch_1">
   <path d="M 0 169.816641 
L 249.106563 169.816641 
L 249.106563 0 
L 0 0 
z
" style="fill: #ffffff"/>
  </g>
  <g id="axes_1">
   <g id="patch_2">
    <path d="M 47.394219 137.099453 
L 236.340469 137.099453 
L 236.340469 9.859453 
L 47.394219 9.859453 
z
" style="fill: #ffffff"/>
   </g>
   <g id="matplotlib.axis_1">
    <g id="xtick_1">
     <g id="line2d_1">
      <defs>
       <path id="m5c7f5a4530" d="M 0 0 
L 0 3.5 
" style="stroke: #000000; stroke-width: 0.8"/>
      </defs>
      <g>
       <use xlink:href="#m5c7f5a4530" x="47.394219" y="137.099453" style="stroke: #000000; stroke-width: 0.8"/>
      </g>
     </g>
     <g id="text_1">
      <text style="font-size: 7px; font-family: 'Liberation Serif'; text-anchor: middle" x="47.394219" y="149.418359" transform="rotate(-0 47.394219 149.418359)">0.0</text>
     </g>
    </g>
    <g id="xtick_2">
     <g id="line2d_2">
      <g>
       <use xlink:href="#m5c7f5a4530" x="85.183469" y="137.099453" style="stroke: #000000; stroke-width: 0.8"/>
      </g>
     </g>
     <g id="text_2">
      <text style="font-size: 7px; font-family: 'Liberation Serif'; text-anchor: middle" x="85.183469" y="149.418359" transform="rotate(-0 85.183469 149.418359)">0.2</text>
     </g>
    </g>
    <g id="xtick_3">
     <g id="line2d_3">
      <g>
       <use xlink:href="#m5c7f5a4530" x="122.972719" y="137.099453" style="stroke: #000000; stroke-width: 0.8"/>
      </g>
     </g>
     <g id="text_3">
      <text style="font-size: 7px; font-family: 'Liberation Serif'; text-anchor: middle" x="122.972719" y="149.418359" transform="rotate(-0 122.972719 149.418359)">0.4</text>
     </g>
    </g>
    <g id="xtick_4">
     <g id="line2d_4">
      <g>
       <use xlink:href="#m5c7f5a4530" x="160.761969" y="137.099453" style="stroke: #000000; stroke-width: 0.8"/>
      </g>
     </g>
     <g id="text_4">
      <text style="font-size: 7px; font-family: 'Liberation Serif'; text-anchor: middle" x="160.761969" y="149.418359" transform="rotate(-0 160.761969 149.418359)">0.6</text>
     </g>
    </g>
    <g id="xtick_5">
     <g id="line2d_5">
      <g>
       <use xlink:href="#m5c7f5a4530" x="198.551219" y="137.099453" style="stroke: #000000; stroke-width: 0.8"/>
      </g>
     </g>
     <g id="text_5">
      <text style="font-size: 7px; font-family: 'Liberation Serif'; text-anchor: middle" x="198.551219" y="149.418359" transform="rotate(-0 198.551219 149.418359)">0.8</text>
     </g>
    </g>
    <g id="xtick_6">
     <g id="line2d_6">
      <g>
       <use xlink:href="#m5c7f5a4530" x="236.340469" y="137.099453" style="stroke: #000000; stroke-width: 0.8"/>
      </g>
     </g>
     <g id="text_6">
      <text style="font-size: 7px; font-family: 'Liberation Serif'; text-anchor: middle" x="236.340469" y="149.418359" transform="rotate(-0 236.340469 149.418359)">1.0</text>
     </g>
    </g>
    <g id="text_7">
     <text style="font-size: 8px; font-family: 'Liberation Serif'; text-anchor: middle" x="141.867344" y="160.952891" transform="rotate(-0 141.867344 160.952891)">Threshold probability</text>
    </g>
   </g>
   <g id="matplotlib.axis_2">
    <g id="ytick_1">
     <g id="line2d_7">
      <defs>
       <path id="md945854841" d="M 0 0 
L -3.5 0 
" style="stroke: #000000; stroke-width: 0.8"/>
      </defs>
      <g>
       <use xlink:href="#md945854841" x="47.394219" y="137.099453" style="stroke: #000000; stroke-width: 0.8"/>
      </g>
     </g>
     <g id="text_8">
      <text style="font-size: 7px; font-family: 'Liberation Serif'; text-anchor: end" x="40.394219" y="139.758906" transform="rotate(-0 40.394219 139.758906)">−0.05</text>
     </g>
    </g>
    <g id="ytick_2">
     <g id="line2d_8">
      <g>
       <use xlink:href="#md945854841" x="47.394219" y="115.892786" style="stroke: #000000; stroke-width: 0.8"/>
      </g>
     </g>
     <g id="text_9">
      <text style="font-size: 7px; font-family: 'Liberation Serif'; text-anchor: end" x="40.394219" y="118.55224" transform="rotate(-0 40.394219 118.55224)">0.00</text>
     </g>
    </g>
    <g id="ytick_3">
     <g id="line2d_9">
      <g>
       <use xlink:href="#md945854841" x="47.394219" y="94.68612" style="stroke: #000000; stroke-width: 0.8"/>
      </g>
     </g>
     <g id="text_10">
      <text style="font-size: 7px; font-family: 'Liberation Serif'; text-anchor: end" x="40.394219" y="97.345573" transform="rotate(-0 40.394219 97.345573)">0.05</text>
     </g>
    </g>
    <g id="ytick_4">
     <g id="line2d_10">
      <g>
       <use xlink:href="#md945854841" x="47.394219" y="73.479453" style="stroke: #000000; stroke-width: 0.8"/>
      </g>
     </g>
     <g id="text_11">
      <text style="font-size: 7px; font-family: 'Liberation Serif'; text-anchor: end" x="40.394219" y="76.138906" transform="rotate(-0 40.394219 76.138906)">0.10</text>
     </g>
    </g>
    <g id="ytick_5">
     <g id="line2d_11">
      <g>
       <use xlink:href="#md945854841" x="47.394219" y="52.272786" style="stroke: #000000; stroke-width: 0.8"/>
      </g>
     </g>
     <g id="text_12">
      <text style="font-size: 7px; font-family: 'Liberation Serif'; text-anchor: end" x="40.394219" y="54.93224" transform="rotate(-0 40.394219 54.93224)">0.15</text>
     </g>
    </g>
    <g id="ytick_6">
     <g id="line2d_12">
      <g>
       <use xlink:href="#md945854841" x="47.394219" y="31.06612" style="stroke: #000000; stroke-width: 0.8"/>
      </g>
     </g>
     <g id="text_13">
      <text style="font-size: 7px; font-family: 'Liberation Serif'; text-anchor: end" x="40.394219" y="33.725573" transform="rotate(-0 40.394219 33.725573)">0.20</text>
     </g>
    </g>
    <g id="ytick_7">
     <g id="line2d_13">
      <g>
       <use xlink:href="#md945854841" x="47.394219" y="9.859453" style="stroke: #000000; stroke-width: 0.8"/>
      </g>
     </g>
     <g id="text_14">
      <text style="font-size: 7px; font-family: 'Liberation Serif'; text-anchor: end" x="40.394219" y="12.518906" transform="rotate(-0 40.394219 12.518906)">0.25</text>
     </g>
    </g>
    <g id="text_15">
     <text style="font-size: 8px; font-family: 'Liberation Serif'; text-anchor: middle" x="13.27875" y="73.479453" transform="rotate(-90 13.27875 73.479453)">Net benefit</text>
    </g>
   </g>
   <g id="line2d_14">
    <path d="M 49.283681 43.397002 
L 51.173144 47.260263 
L 53.062606 49.535425 
L 54.952069 51.296277 
L 56.841531 53.945633 
L 58.730994 55.570228 
L 60.620456 57.095955 
L 62.509919 57.956002 
L 64.399381 59.404731 
L 66.288844 60.125187 
L 68.178306 62.28334 
L 70.067769 62.864336 
L 71.957231 65.055907 
L 73.846694 65.97205 
L 75.736156 66.787748 
L 77.625619 67.104367 
L 79.515081 67.466098 
L 81.404544 68.140164 
L 83.294006 69.522207 
L 85.183469 71.301751 
L 87.072931 71.708676 
L 88.962394 72.312162 
L 90.851856 73.470026 
L 92.741319 74.685649 
L 94.630781 75.449755 
L 96.520244 77.215459 
L 98.409706 76.75666 
L 100.299169 78.387924 
L 102.188631 78.940504 
L 104.078094 80.042187 
L 105.967556 80.01857 
L 107.857019 80.390759 
L 109.746481 79.19534 
L 111.635944 79.346364 
L 113.525406 78.879834 
L 115.414869 80.051446 
L 117.304331 80.042187 
L 119.193794 82.273889 
L 121.083256 83.507761 
L 122.972719 84.091428 
L 124.862181 84.659728 
L 126.751644 85.211866 
L 128.641106 85.746991 
L 130.530569 86.264192 
L 132.420031 87.610946 
L 134.309494 87.240838 
L 136.198956 88.617708 
L 138.088419 90.047535 
L 139.977881 88.544432 
L 141.867344 89.967766 
L 143.756806 90.369868 
L 145.646269 90.745517 
L 147.535731 92.262406 
L 149.425194 94.882248 
L 151.314656 95.267992 
L 153.204119 96.661135 
L 155.093581 92.861722 
L 156.983044 92.980007 
L 158.872506 94.545745 
L 160.761969 94.115769 
L 162.651431 90.845228 
L 164.540894 93.351663 
L 166.430356 94.171823 
L 168.319819 95.728882 
L 170.209281 97.374915 
L 172.098744 93.078769 
L 173.988206 92.544556 
L 175.877669 91.912143 
L 177.767131 93.480188 
L 179.656594 95.15277 
L 181.546056 96.940703 
L 183.435519 96.189771 
L 185.324981 92.502657 
L 187.214444 92.360845 
L 189.103906 91.004767 
L 190.993369 93.770102 
L 192.882831 96.685728 
L 194.772294 98.735137 
L 196.661756 102.016728 
L 198.551219 107.59678 
L 200.440681 110.325729 
L 202.330144 113.357896 
L 204.219606 116.746787 
L 206.109069 120.55929 
L 207.998531 126.954128 
L 209.887994 125.52208 
L 211.777456 131.687107 
L 213.666919 130.065131 
L 215.556381 136.349984 
L 217.445844 144.928809 
L 219.335306 155.183595 
L 221.224769 167.742827 
L 221.548772 170.816641 
" clip-path="url(#p6179fdee61)" style="fill: none; stroke: #6366f1; stroke-width: 1.2; stroke-linecap: square"/>
   </g>
   <g id="line2d_15">
    <path d="M 49.283681 42.663769 
L 51.173144 46.244426 
L 53.062606 49.89891 
L 54.952069 53.629529 
L 56.841531 57.438688 
L 58.730994 61.328893 
L 60.620456 65.302757 
L 62.509919 69.363011 
L 64.399381 73.5125 
L 66.288844 77.754201 
L 68.178306 82.091221 
L 70.067769 86.526809 
L 71.957231 91.064365 
L 73.846694 95.707445 
L 75.736156 100.459774 
L 77.625619 105.325254 
L 79.515081 110.307975 
L 81.404544 115.412225 
L 83.294006 120.642506 
L 85.183469 126.003544 
L 87.072931 131.500305 
L 88.962394 137.138008 
L 90.851856 142.922145 
L 92.741319 148.858497 
L 94.630781 154.95315 
L 96.520244 161.212525 
L 98.409706 167.643389 
L 99.316846 170.816641 
" clip-path="url(#p6179fdee61)" style="fill: none; stroke-dasharray: 4.44,1.92; stroke-dashoffset: 0; stroke: #6b7280; stroke-width: 1.2"/>
   </g>
   <g id="line2d_16">
    <path d="M 49.283681 115.892786 
L 51.173144 115.892786 
L 53.062606 115.892786 
L 54.952069 115.892786 
L 56.841531 115.892786 
L 58.730994 115.892786 
L 60.620456 115.892786 
L 62.509919 115.892786 
L 64.399381 115.892786 
L 66.288844 115.892786 
L 68.178306 115.892786 
L 70.067769 115.892786 
L 71.957231 115.892786 
L 73.846694 115.892786 
L 75.736156 115.892786 
L 77.625619 115.892786 
L 79.515081 115.892786 
L 81.404544 115.892786 
L 83.294006 115.892786 
L 85.183469 115.892786 
L 87.072931 115.892786 
L 88.962394 115.892786 
L 90.851856 115.892786 
L 92.741319 115.892786 
L 94.630781 115.892786 
L 96.520244 115.892786 
L 98.409706 115.892786 
L 100.299169 115.892786 
L 102.188631 115.892786 
L 104.078094 115.892786 
L 105.967556 115.892786 
L 107.857019 115.892786 
L 109.746481 115.892786 
L 111.635944 115.892786 
L 113.525406 115.892786 
L 115.414869 115.892786 
L 117.304331 115.892786 
L 119.193794 115.892786 
L 121.083256 115.892786 
L 122.972719 115.892786 
L 124.862181 115.892786 
L 126.751644 115.892786 
L 128.641106 115.892786 
L 130.530569 115.892786 
L 132.420031 115.892786 
L 134.309494 115.892786 
L 136.198956 115.892786 
L 138.088419 115.892786 
L 139.977881 115.892786 
L 141.867344 115.892786 
L 143.756806 115.892786 
L 145.646269 115.892786 
L 147.535731 115.892786 
L 149.425194 115.892786 
L 151.314656 115.892786 
L 153.204119 115.892786 
L 155.093581 115.892786 
L 156.983044 115.892786 
L 158.872506 115.892786 
L 160.761969 115.892786 
L 162.651431 115.892786 
L 164.540894 115.892786 
L 166.430356 115.892786 
L 168.319819 115.892786 
L 170.209281 115.892786 
L 172.098744 115.892786 
L 173.988206 115.892786 
L 175.877669 115.892786 
L 177.767131 115.892786 
L 179.656594 115.892786 
L 181.546056 115.892786 
L 183.435519 115.892786 
L 185.324981 115.892786 
L 187.214444 115.892786 
L 189.103906 115.892786 
L 190.993369 115.892786 
L 192.882831 115.892786 
L 194.772294 115.892786 
L 196.661756 115.892786 
L 198.551219 115.892786 
L 200.440681 115.892786 
L 202.330144 115.892786 
L 204.219606 115.892786 
L 206.109069 115.892786 
L 207.998531 115.892786 
L 209.887994 115.892786 
L 211.777456 115.892786 
L 213.666919 115.892786 
L 215.556381 115.892786 
L 217.445844 115.892786 
L 219.335306 115.892786 
L 221.224769 115.892786 
L 223.114231 115.892786 
L 225.003694 115.892786 
L 226.893156 115.892786 
L 228.782619 115.892786 
L 230.672081 115.892786 
L 232.561544 115.892786 
L 234.451006 115.892786 
" clip-path="url(#p6179fdee61)" style="fill: none; stroke-dasharray: 1.2,1.98; stroke-dashoffset: 0; stroke: #1f2937; stroke-width: 1.2"/>
   </g>
   <g id="line2d_17">
    <path d="M 49.283681 42.506648 
L 51.173144 46.392569 
L 53.062606 49.856147 
L 54.952069 52.160445 
L 56.841531 53.836475 
L 58.730994 55.195143 
L 60.620456 56.605331 
L 62.509919 58.001089 
L 64.399381 59.4845 
L 66.288844 60.240409 
L 68.178306 61.223036 
L 70.067769 60.884607 
L 71.957231 60.907904 
L 73.846694 61.317604 
L 75.736156 62.944745 
L 77.625619 63.598317 
L 79.515081 64.355095 
L 81.404544 67.330797 
L 83.294006 69.458194 
L 85.183469 69.74625 
L 87.072931 69.634674 
L 88.962394 68.775724 
L 90.851856 69.537503 
L 92.741319 68.627381 
L 94.630781 69.573417 
L 96.520244 69.423939 
L 98.409706 69.923819 
L 100.299169 70.379973 
L 102.188631 69.519863 
L 104.078094 70.264751 
L 105.967556 69.603475 
L 107.857019 69.28875 
L 109.746481 70.419527 
L 111.635944 70.453296 
L 113.525406 70.982674 
L 115.414869 69.74625 
L 117.304331 69.556956 
L 119.193794 69.930234 
L 121.083256 70.655751 
L 122.972719 71.647418 
L 124.862181 71.231446 
L 126.751644 71.766614 
L 128.641106 68.045205 
L 130.530569 68.042606 
L 132.420031 68.190749 
L 134.309494 65.579043 
L 136.198956 66.429804 
L 138.088419 65.079747 
L 139.977881 66.665748 
L 141.867344 68.190749 
L 143.756806 68.698668 
L 145.646269 68.017915 
L 147.535731 70.551581 
L 149.425194 72.06823 
L 151.314656 72.569197 
L 153.204119 73.092935 
L 155.093581 74.678033 
L 156.983044 76.289232 
L 158.872506 76.43617 
L 160.761969 78.560757 
L 162.651431 75.848601 
L 164.540894 77.30544 
L 166.430356 78.364568 
L 168.319819 78.675979 
L 170.209281 79.153329 
L 172.098744 79.414758 
L 173.988206 81.766032 
L 175.877669 85.171637 
L 177.767131 85.251085 
L 179.656594 88.585098 
L 181.546056 87.321626 
L 183.435519 87.449336 
L 185.324981 88.623506 
L 187.214444 91.882229 
L 189.103906 94.115769 
L 190.993369 94.288603 
L 192.882831 94.476465 
L 194.772294 95.718407 
L 196.661756 96.979867 
L 198.551219 94.115769 
L 200.440681 97.226772 
L 202.330144 100.337774 
L 204.219606 101.374775 
L 206.109069 103.448777 
L 207.998531 104.485777 
L 209.887994 105.522778 
L 211.777456 105.522778 
L 213.666919 106.559779 
L 215.556381 110.707782 
L 217.445844 110.707782 
L 219.335306 111.744783 
L 221.224769 112.781784 
L 223.114231 112.781784 
L 225.003694 112.781784 
L 226.893156 114.855786 
L 228.782619 115.892786 
L 230.672081 115.892786 
L 232.561544 115.892786 
L 234.451006 115.892786 
" clip-path="url(#p6179fdee61)" style="fill: none; stroke: #10b981; stroke-width: 1.2; stroke-linecap: square"/>
   </g>
   <g id="line2d_18">
    <path d="M 49.283681 45.240559 
L 51.173144 45.75767 
L 53.062606 46.199917 
L 54.952069 46.586565 
L 56.841531 46.959522 
L 58.730994 48.222967 
L 60.620456 48.42083 
L 62.509919 48.622994 
L 64.399381 48.966349 
L 66.288844 49.29429 
L 68.178306 49.478128 
L 70.067769 50.656008 
L 71.957231 51.789449 
L 73.846694 52.008713 
L 75.736156 52.208736 
L 77.625619 52.586356 
L 79.515081 53.797677 
L 81.404544 53.950957 
L 83.294006 54.325664 
L 85.183469 54.709738 
L 87.072931 55.103536 
L 88.962394 54.922456 
L 90.851856 54.992557 
L 92.741319 55.364686 
L 94.630781 56.78374 
L 96.520244 57.176119 
L 98.409706 57.579247 
L 100.299169 57.187018 
L 102.188631 56.725317 
L 104.078094 60.191028 
L 105.967556 60.556018 
L 107.857019 60.931743 
L 109.746481 61.318684 
L 111.635944 61.183137 
L 113.525406 61.569898 
L 115.414869 61.968744 
L 117.304331 61.77122 
L 119.193794 64.243456 
L 121.083256 64.654746 
L 122.972719 65.425413 
L 124.862181 66.872528 
L 126.751644 67.296783 
L 128.641106 67.735924 
L 130.530569 67.375963 
L 132.420031 67.813658 
L 134.309494 68.267564 
L 136.198956 68.738598 
L 138.088419 69.22775 
L 139.977881 69.736084 
L 141.867344 68.190749 
L 143.756806 68.656341 
L 145.646269 70.178334 
L 147.535731 70.683964 
L 149.425194 71.211577 
L 151.314656 72.799641 
L 153.204119 73.375753 
L 155.093581 72.604032 
L 156.983044 71.74618 
L 158.872506 73.325168 
L 160.761969 73.894253 
L 162.651431 74.492523 
L 164.540894 75.122281 
L 166.430356 74.020375 
L 168.319819 74.643198 
L 170.209281 75.301612 
L 172.098744 75.998755 
L 173.988206 76.73815 
L 175.877669 78.560757 
L 177.767131 79.397048 
L 179.656594 80.289092 
L 181.546056 82.279657 
L 183.435519 83.301332 
L 185.324981 84.398688 
L 187.214444 86.617456 
L 189.103906 88.930765 
L 190.993369 87.029597 
L 192.882831 88.344634 
L 194.772294 90.816221 
L 196.661756 93.424435 
L 198.551219 95.15277 
L 200.440681 97.063035 
L 202.330144 100.222552 
L 204.219606 102.594776 
L 206.109069 105.263528 
L 207.998531 109.325115 
L 209.887994 106.411636 
L 211.777456 109.83032 
L 213.666919 114.855786 
L 215.556381 113.253148 
L 217.445844 119.003789 
L 219.335306 124.764905 
L 221.224769 120.04079 
L 223.114231 128.484939 
L 225.003694 138.361137 
L 226.893156 152.187815 
L 228.36892 170.816641 
M 233.39879 170.816641 
L 234.451006 89.967766 
" clip-path="url(#p6179fdee61)" style="fill: none; stroke: #f97316; stroke-width: 1.2; stroke-linecap: square"/>
   </g>
   <g id="patch_3">
    <path d="M 47.394219 137.099453 
L 47.394219 9.859453 
" style="fill: none; stroke: #000000; stroke-width: 0.6; stroke-linejoin: miter; stroke-linecap: square"/>
   </g>
   <g id="patch_4">
    <path d="M 47.394219 137.099453 
L 236.340469 137.099453 
" style="fill: none; stroke: #000000; stroke-width: 0.6; stroke-linejoin: miter; stroke-linecap: square"/>
   </g>
   <g id="legend_1">
    <g id="line2d_19">
     <path d="M 143.297344 19.028359 
L 150.297344 19.028359 
L 157.297344 19.028359 
" style="fill: none; stroke: #6366f1; stroke-width: 1.2; stroke-linecap: square"/>
    </g>
    <g id="text_16">
     <text style="font-size: 7px; font-family: 'Liberation Serif'; text-anchor: start" x="162.897344" y="21.478359" transform="rotate(-0 162.897344 21.478359)">Logistic Regression</text>
    </g>
    <g id="line2d_20">
     <path d="M 143.297344 29.303047 
L 150.297344 29.303047 
L 157.297344 29.303047 
" style="fill: none; stroke-dasharray: 4.44,1.92; stroke-dashoffset: 0; stroke: #6b7280; stroke-width: 1.2"/>
    </g>
    <g id="text_17">
     <text style="font-size: 7px; font-family: 'Liberation Serif'; text-anchor: start" x="162.897344" y="31.753047" transform="rotate(-0 162.897344 31.753047)">Treat all</text>
    </g>
    <g id="line2d_21">
     <path d="M 143.297344 39.577734 
L 150.297344 39.577734 
L 157.297344 39.577734 
" style="fill: none; stroke-dasharray: 1.2,1.98; stroke-dashoffset: 0; stroke: #1f2937; stroke-width: 1.2"/>
    </g>
    <g id="text_18">
     <text style="font-size: 7px; font-family: 'Liberation Serif'; text-anchor: start" x="162.897344" y="42.027734" transform="rotate(-0 162.897344 42.027734)">Treat none</text>
    </g>
    <g id="line2d_22">
     <path d="M 143.297344 49.852422 
L 150.297344 49.852422 
L 157.297344 49.852422 
" style="fill: none; stroke: #10b981; stroke-width: 1.2; stroke-linecap: square"/>
    </g>
    <g id="text_19">
     <text style="font-size: 7px; font-family: 'Liberation Serif'; text-anchor: start" x="162.897344" y="52.302422" transform="rotate(-0 162.897344 52.302422)">Random Forest</text>
    </g>
    <g id="line2d_23">
     <path d="M 143.297344 60.127109 
L 150.297344 60.127109 
L 157.297344 60.127109 
" style="fill: none; stroke: #f97316; stroke-width: 1.2; stroke-linecap: square"/>
    </g>
    <g id="text_20">
     <text style="font-size: 7px; font-family: 'Liberation Serif'; text-anchor: start" x="162.897344" y="62.577109" transform="rotate(-0 162.897344 62.577109)">XGBoost</text>
    </g>
   </g>
  </g>
 </g>
 <defs>
  <clipPath id="p6179fdee61">
   <rect x="47.394219" y="9.859453" width="188.94625" height="127.24"/>
  </clipPath>
 </defs>
</svg>
