<?xml version="1.0" encoding="utf-8" standalone="no"?>
<!DOCTYPE svg PUBLIC "-//W3C//DTD SVG 1.1//EN"
  "http://www.w3.org/Graphics/SVG/1.1/DTD/svg11.dtd">
<svg xmlns:xlink="http://www.w3.org/1999/xlink" width="220.280781pt" height="213.016641pt" viewBox="0 0 220.280781 213.016641" xmlns="http://www.w3.org/2000/svg" version="1.1">
 <metadata>
  <rdf:RDF xmlns:dc="http://purl.org/dc/elements/1.1/" xmlns:cc="http://creativecommons.org/ns#" xmlns:rdf="http://www.w3.org/1999/02/22-rdf-syntax-ns#">
   <cc:Work>
    <dc:type rdf:resource="http://purl.org/dc/dcmitype/StillImage"/>
    <dc:date>2026-05-20T12:10:30.112075</dc:date>
    <dc:format>image/svg+xml</dc:format>
    <dc:creator>
     <cc:Agent>
      <dc:title>Matplotlib v3.10.9, https://matplotlib.org/</dc:title>
     </cc:Agent>
    </dc:creator>
   </cc:Work>
  </rdf:RDF>
 </metadata>
 <defs>
  <style type="text/css">*{stroke-linejoin: round; stroke-linecap: butt}</style>
 </defs>
 <g id="figure_1">
  <g id="patch_1">
   <path d="M 0 213.016641 
L 220.280781 213.016641 
L 220.280781 0 
L 0 0 
z
" style="fill: #ffffff"/>
  </g>
  <g id="axes_1">
   <g id="patch_2">
    <path d="M 37.074688 180.299453 
L 207.514687 180.299453 
L 207.514687 9.859453 
L 37.074688 9.859453 
z
" style="fill: #ffffff"/>
   </g>
   <g id="matplotlib.axis_1">
    <g id="xtick_1">
     <g id="line2d_1">
      <defs>
       <path id="m3ef3a8d0dc" d="M 0 0 
L 0 3.5 
" style="stroke: #000000; stroke-width: 0.8"/>
      </defs>
      <g>
       <use xlink:href="#m3ef3a8d0dc" x="37.074688" y="180.299453" style="stroke: #000000; stroke-width: 0.8"/>
      </g>
     </g>
     <g id="text_1">
      <text style="font-size: 7px; font-family: 'Liberation Serif'; text-anchor: middle" x="37.074688" y="192.618359" transform="rotate(-0 37.074688 192.618359)">0.0</text>
     </g>
    </g>
    <g id="xtick_2">
     <g id="line2d_2">
      <g>
       <use xlink:href="#m3ef3a8d0dc" x="71.162688" y="180.299453" style="stroke: #000000; stroke-width: 0.8"/>
      </g>
     </g>
     <g id="text_2">
      <text style="font-size: 7px; font-family: 'Liberation Serif'; text-anchor: middle" x="71.162688" y="192.618359" transform="rotate(-0 71.162688 192.618359)">0.2</text>
     </g>
    </g>
    <g id="xtick_3">
     <g id="line2d_3">
      <g>
       <use xlink:href="#m3ef3a8d0dc" x="105.250687" y="180.299453" style="stroke: #000000; stroke-width: 0.8"/>
      </g>
     </g>
     <g id="text_3">
      <text style="font-size: 7px; font-family: 'Liberation Serif'; text-anchor: middle" x="105.250687" y="192.618359" transform="rotate(-0 105.250687 192.618359)">0.4</text>
     </g>
    </g>
    <g id="xtick_4">
     <g id="line2d_4">
      <g>
       <use xlink:href="#m3ef3a8d0dc" x="139.338687" y="180.299453" style="stroke: #000000; stroke-width: 0.8"/>
      </g>
     </g>
     <g id="text_4">
      <text style="font-size: 7px; font-family: 'Liberation Serif'; text-anchor: middle" x="139.338687" y="192.618359" transform="rotate(-0 139.338687 192.618359)">0.6</text>
     </g>
    </g>
    <g id="xtick_5">
     <g id="line2d_5">
      <g>
       <use xlink:href="#m3ef3a8d0dc" x="173.426687" y="180.299453" style="stroke: #000000; stroke-width: 0.8"/>
      </g>
     </g>
     <g id="text_5">
      <text style="font-size: 7px; font-family: 'Liberation Serif'; text-anchor: middle" x="173.426687" y="192.618359" transform="rotate(-0 173.426687 192.618359)">0.8</text>
     </g>
    </g>
    <g id="xtick_6">
     <g id="line2d_6">
      <g>
       <use xlink:href="#m3ef3a8d0dc" x="207.514687" y="180.299453" style="stroke: #000000; stroke-width: 0.8"/>
      </g>
     </g>
     <g id="text_6">
      <text style="font-size: 7px; font-family: 'Liberation Serif'; text-anchor: middle" x="207.514687" y="192.618359" transform="rotate(-0 207.514687 192.618359)">1.0</text>
     </g>
    </g>
    <g id="text_7">
     <text style="font-size: 8px; font-family: 'Liberation Serif'; text-anchor: middle" x="122.294687" y="204.152891" transform="rotate(-0 122.294687 204.152891)">Predicted probability</text>
    </g>
   </g>
   <g id="matplotlib.axis_2">
    <g id="ytick_1">
     <g id="line2d_7">
      <defs>
       <path id="m23805a87aa" d="M 0 0 
L -3.5 0 
" style="stroke: #000000; stroke-width: 0.8"/>
      </defs>
      <g>
       <use xlink:href="#m23805a87aa" x="37.074688" y="180.299453" style="stroke: #000000; stroke-width: 0.8"/>
      </g>
     </g>
     <g id="text_8">
      <text style="font-size: 7px; font-family: 'Liberation Serif'; text-anchor: end" x="30.074688" y="182.958906" transform="rotate(-0 30.074688 182.958906)">0.0</text>
     </g>
    </g>
    <g id="ytick_2">
     <g id="line2d_8">
      <g>
       <use xlink:href="#m23805a87aa" x="37.074688" y="146.211453" style="stroke: #000000; stroke-width: 0.8"/>
      </g>
     </g>
     <g id="text_9">
      <text style="font-size: 7px; font-family: 'Liberation Serif'; text-anchor: end" x="30.074688" y="148.870906" transform="rotate(-0 30.074688 148.870906)">0.2</text>
     </g>
    </g>
    <g id="ytick_3">
     <g id="line2d_9">
      <g>
       <use xlink:href="#m23805a87aa" x="37.074688" y="112.123453" style="stroke: #000000; stroke-width: 0.8"/>
      </g>
     </g>
     <g id="text_10">
      <text style="font-size: 7px; font-family: 'Liberation Serif'; text-anchor: end" x="30.074688" y="114.782906" transform="rotate(-0 30.074688 114.782906)">0.4</text>
     </g>
    </g>
    <g id="ytick_4">
     <g id="line2d_10">
      <g>
       <use xlink:href="#m23805a87aa" x="37.074688" y="78.035453" style="stroke: #000000; stroke-width: 0.8"/>
      </g>
     </g>
     <g id="text_11">
      <text style="font-size: 7px; font-family: 'Liberation Serif'; text-anchor: end" x="30.074688" y="80.694906" transform="rotate(-0 30.074688 80.694906)">0.6</text>
     </g>
    </g>
    <g id="ytick_5">
     <g id="line2d_11">
      <g>
       <use xlink:href="#m23805a87aa" x="37.074688" y="43.947453" style="stroke: #000000; stroke-width: 0.8"/>
      </g>
     </g>
     <g id="text_12">
      <text style="font-size: 7px; font-family: 'Liberation Serif'; text-anchor: end" x="30.074688" y="46.606906" transform="rotate(-0 30.074688 46.606906)">0.8</text>
     </g>
    </g>
    <g id="ytick_6">
     <g id="line2d_12">
      <g>
       <use xlink:href="#m23805a87aa" x="37.074688" y="9.859453" style="stroke: #000000; stroke-width: 0.8"/>
      </g>
     </g>
     <g id="text_13">
      <text style="font-size: 7px; font-family: 'Liberation Serif'; text-anchor: end" x="30.074688" y="12.518906" transform="rotate(-0 30.074688 12.518906)">1.0</text>
     </g>
    </g>
    <g id="text_14">
     <text style="font-size: 8px; font-family: 'Liberation Serif'; text-anchor: middle" x="13.27875" y="95.079453" transform="rotate(-90 13.27875 95.079453)">Observed frequency</text>
    </g>
   </g>
   <g id="line2d_13">
    <path d="M 37.074688 180.299453 
L 207.514687 9.859453 
" clip-path="url(#p7dd566c478)" style="fill: none; stroke-dasharray: 2.96,1.28; stroke-dashoffset: 0; stroke: #9ca3af; stroke-width: 0.8"/>
   </g>
   <g id="line2d_14">
    <path d="M 38.193699 171.985307 
L 41.167195 180.299453 
L 43.784443 176.14238 
L 47.658562 176.14238 
L 52.775332 176.14238 
L 61.680649 171.777453 
L 75.135122 167.828234 
L 107.028152 155.357014 
L 172.346504 76.372624 
L 205.843895 43.116038 
" clip-path="url(#p7dd566c478)" style="fill: none; stroke: #6366f1; stroke-width: 1.2; stroke-linecap: square"/>
    <defs>
     <path id="mb9cce672d4" d="M 0 1.5 
C 0.397805 1.5 0.77937 1.341951 1.06066 1.06066 
C 1.341951 0.77937 1.5 0.397805 1.5 0 
C 1.5 -0.397805 1.341951 -0.77937 1.06066 -1.06066 
C 0.77937 -1.341951 0.397805 -1.5 0 -1.5 
C -0.397805 -1.5 -0.77937 -1.341951 -1.06066 -1.06066 
C -1.341951 -0.77937 -1.5 -0.397805 -1.5 0 
C -1.5 0.397805 -1.341951 0.77937 -1.06066 1.06066 
C -0.77937 1.341951 -0.397805 1.5 0 1.5 
z
" style="stroke: #6366f1"/>
    </defs>
    <g clip-path="url(#p7dd566c478)">
     <use xlink:href="#mb9cce672d4" x="38.193699" y="171.985307" style="fill: #6366f1; stroke: #6366f1"/>
     <use xlink:href="#mb9cce672d4" x="41.167195" y="180.299453" style="fill: #6366f1; stroke: #6366f1"/>
     <use xlink:href="#mb9cce672d4" x="43.784443" y="176.14238" style="fill: #6366f1; stroke: #6366f1"/>
     <use xlink:href="#mb9cce672d4" x="47.658562" y="176.14238" style="fill: #6366f1; stroke: #6366f1"/>
     <use xlink:href="#mb9cce672d4" x="52.775332" y="176.14238" style="fill: #6366f1; stroke: #6366f1"/>
     <use xlink:href="#mb9cce672d4" x="61.680649" y="171.777453" style="fill: #6366f1; stroke: #6366f1"/>
     <use xlink:href="#mb9cce672d4" x="75.135122" y="167.828234" style="fill: #6366f1; stroke: #6366f1"/>
     <use xlink:href="#mb9cce672d4" x="107.028152" y="155.357014" style="fill: #6366f1; stroke: #6366f1"/>
     <use xlink:href="#mb9cce672d4" x="172.346504" y="76.372624" style="fill: #6366f1; stroke: #6366f1"/>
     <use xlink:href="#mb9cce672d4" x="205.843895" y="43.116038" style="fill: #6366f1; stroke: #6366f1"/>
    </g>
   </g>
   <g id="line2d_15">
    <path d="M 39.329575 180.299453 
L 41.715078 171.985307 
L 45.028427 180.299453 
L 49.516813 180.299453 
L 56.166726 171.985307 
L 64.929586 180.299453 
L 78.802212 171.985307 
L 101.854195 163.67116 
L 132.930107 72.215551 
L 173.625196 22.330673 
" clip-path="url(#p7dd566c478)" style="fill: none; stroke: #10b981; stroke-width: 1.2; stroke-linecap: square"/>
    <defs>
     <path id="ma9fac6b121" d="M 0 1.5 
C 0.397805 1.5 0.77937 1.341951 1.06066 1.06066 
C 1.341951 0.77937 1.5 0.397805 1.5 0 
C 1.5 -0.397805 1.341951 -0.77937 1.06066 -1.06066 
C 0.77937 -1.341951 0.397805 -1.5 0 -1.5 
C -0.397805 -1.5 -0.77937 -1.341951 -1.06066 -1.06066 
C -1.341951 -0.77937 -1.5 -0.397805 -1.5 0 
C -1.5 0.397805 -1.341951 0.77937 -1.06066 1.06066 
C -0.77937 1.341951 -0.397805 1.5 0 1.5 
z
" style="stroke: #10b981"/>
    </defs>
    <g clip-path="url(#p7dd566c478)">
     <use xlink:href="#ma9fac6b121" x="39.329575" y="180.299453" style="fill: #10b981; stroke: #10b981"/>
     <use xlink:href="#ma9fac6b121" x="41.715078" y="171.985307" style="fill: #10b981; stroke: #10b981"/>
     <use xlink:href="#ma9fac6b121" x="45.028427" y="180.299453" style="fill: #10b981; stroke: #10b981"/>
     <use xlink:href="#ma9fac6b121" x="49.516813" y="180.299453" style="fill: #10b981; stroke: #10b981"/>
     <use xlink:href="#ma9fac6b121" x="56.166726" y="171.985307" style="fill: #10b981; stroke: #10b981"/>
     <use xlink:href="#ma9fac6b121" x="64.929586" y="180.299453" style="fill: #10b981; stroke: #10b981"/>
     <use xlink:href="#ma9fac6b121" x="78.802212" y="171.985307" style="fill: #10b981; stroke: #10b981"/>
     <use xlink:href="#ma9fac6b121" x="101.854195" y="163.67116" style="fill: #10b981; stroke: #10b981"/>
     <use xlink:href="#ma9fac6b121" x="132.930107" y="72.215551" style="fill: #10b981; stroke: #10b981"/>
     <use xlink:href="#ma9fac6b121" x="173.625196" y="22.330673" style="fill: #10b981; stroke: #10b981"/>
    </g>
   </g>
   <g id="line2d_16">
    <path d="M 37.094286 180.299453 
L 37.115115 176.14238 
L 37.145293 180.299453 
L 37.217637 176.14238 
L 37.376932 176.14238 
L 37.789849 176.038453 
L 40.06048 176.14238 
L 57.89853 147.042868 
L 149.54416 76.372624 
L 205.974035 30.644819 
" clip-path="url(#p7dd566c478)" style="fill: none; stroke: #f97316; stroke-width: 1.2; stroke-linecap: square"/>
    <defs>
     <path id="m4dcdb177dc" d="M 0 1.5 
C 0.397805 1.5 0.77937 1.341951 1.06066 1.06066 
C 1.341951 0.77937 1.5 0.397805 1.5 0 
C 1.5 -0.397805 1.341951 -0.77937 1.06066 -1.06066 
C 0.77937 -1.341951 0.397805 -1.5 0 -1.5 
C -0.397805 -1.5 -0.77937 -1.341951 -1.06066 -1.06066 
C -1.341951 -0.77937 -1.5 -0.397805 -1.5 0 
C -1.5 0.397805 -1.341951 0.77937 -1.06066 1.06066 
C -0.77937 1.341951 -0.397805 1.5 0 1.5 
z
" style="stroke: #f97316"/>
    </defs>
    <g clip-path="url(#p7dd566c478)">
     <use xlink:href="#m4dcdb177dc" x="37.094286" y="180.299453" style="fill: #f97316; stroke: #f97316"/>
     <use xlink:href="#m4dcdb177dc" x="37.115115" y="176.14238" style="fill: #f97316; stroke: #f97316"/>
     <use xlink:href="#m4dcdb177dc" x="37.145293" y="180.299453" style="fill: #f97316; stroke: #f97316"/>
     <use xlink:href="#m4dcdb177dc" x="37.217637" y="176.14238" style="fill: #f97316; stroke: #f97316"/>
     <use xlink:href="#m4dcdb177dc" x="37.376932" y="176.14238" style="fill: #f97316; stroke: #f97316"/>
     <use xlink:href="#m4dcdb177dc" x="37.789849" y="176.038453" style="fill: #f97316; stroke: #f97316"/>
     <use xlink:href="#m4dcdb177dc" x="40.06048" y="176.14238" style="fill: #f97316; stroke: #f97316"/>
     <use xlink:href="#m4dcdb177dc" x="57.89853" y="147.042868" style="fill: #f97316; stroke: #f97316"/>
     <use xlink:href="#m4dcdb177dc" x="149.54416" y="76.372624" style="fill: #f97316; stroke: #f97316"/>
     <use xlink:href="#m4dcdb177dc" x="205.974035" y="30.644819" style="fill: #f97316; stroke: #f97316"/>
    </g>
   </g>
   <g id="patch_3">
    <path d="M 37.074688 180.299453 
L 37.074688 9.859453 
" style="fill: none; stroke: #000000; stroke-width: 0.6; stroke-linejoin: miter; stroke-linecap: square"/>
   </g>
   <g id="patch_4">
    <path d="M 37.074688 180.299453 
L 207.514687 180.299453 
" style="fill: none; stroke: #000000; stroke-width: 0.6; stroke-linejoin: miter; stroke-linecap: square"/>
   </g>
   <g id="legend_1">
    <g id="line2d_17">
     <path d="M 43.374688 19.028359 
L 50.374688 19.028359 
L 57.374688 19.028359 
" style="fill: none; stroke-dasharray: 2.96,1.28; stroke-dashoffset: 0; stroke: #9ca3af; stroke-width: 0.8"/>
    </g>
    <g id="text_15">
     <text style="font-size: 7px; font-family: 'Liberation Serif'; text-anchor: start" x="62.974688" y="21.478359" transform="rotate(-0 62.974688 21.478359)">Perfect calibration</text>
    </g>
    <g id="line2d_18">
     <path d="M 43.374688 29.303047 
L 50.374688 29.303047 
L 57.374688 29.303047 
" style="fill: none; stroke: #6366f1; stroke-width: 1.2; stroke-linecap: square"/>
     <g>
      <use xlink:href="#mb9cce672d4" x="50.374688" y="29.303047" style="fill: #6366f1; stroke: #6366f1"/>
     </g>
    </g>
    <g id="text_16">
     <text style="font-size: 7px; font-family: 'Liberation Serif'; text-anchor: start" x="62.974688" y="31.753047" transform="rotate(-0 62.974688 31.753047)">Logistic Regression</text>
    </g>
    <g id="line2d_19">
     <path d="M 43.374688 39.577734 
L 50.374688 39.577734 
L 57.374688 39.577734 
" style="fill: none; stroke: #10b981; stroke-width: 1.2; stroke-linecap: square"/>
     <g>
      <use xlink:href="#ma9fac6b121" x="50.374688" y="39.577734" style="fill: #10b981; stroke: #10b981"/>
     </g>
    </g>
    <g id="text_17">
     <text style="font-size: 7px; font-family: 'Liberation Serif'; text-anchor: start" x="62.974688" y="42.027734" transform="rotate(-0 62.974688 42.027734)">Random Forest</text>
    </g>
    <g id="line2d_20">
     <path d="M 43.374688 49.852422 
L 50.374688 49.852422 
L 57.374688 49.852422 
" style="fill: none; stroke: #f97316; stroke-width: 1.2; stroke-linecap: square"/>
     <g>
      <use xlink:href="#m4dcdb177dc" x="50.374688" y="49.852422" style="fill: #f97316; stroke: #f97316"/>
     </g>
    </g>
    <g id="text_18">
     <text style="font-size: 7px; font-family: 'Liberation Serif'; text-anchor: start" x="62.974688" y="52.302422" transform="rotate(-0 62.974688 52.302422)">XGBoost</text>
    </g>
   </g>
  </g>
 </g>
 <defs>
  <clipPath id="p7dd566c478">
   <rect x="37.074688" y="9.859453" width="170.44" height="170.44"/>
  </clipPath>
 </defs>
</svg>
