<?xml version="1.0" encoding="utf-8" standalone="no"?>
<!DOCTYPE svg PUBLIC "-//W3C//DTD SVG 1.1//EN"
  "http://www.w3.org/Graphics/SVG/1.1/DTD/svg11.dtd">
<svg xmlns:xlink="http://www.w3.org/1999/xlink" width="220.280781pt" height="213.016641pt" viewBox="0 0 220.280781 213.016641" xmlns="http://www.w3.org/2000/svg" version="1.1">
 <metadata>
  <rdf:RDF xmlns:dc="http://purl.org/dc/elements/1.1/" xmlns:cc="http://creativecommons.org/ns#" xmlns:rdf="http://www.w3.org/1999/02/22-rdf-syntax-ns#">
   <cc:Work>
    <dc:type rdf:resource="http://purl.org/dc/dcmitype/StillImage"/>
    <dc:date>2026-05-21T17:10:48.177290</dc:date>
    <dc:format>image/svg+xml</dc:format>
    <dc:creator>
     <cc:Agent>
      <dc:title>Matplotlib v3.10.9, https://matplotlib.org/</dc:title>
     </cc:Agent>
    </dc:creator>
   </cc:Work>
  </rdf:RDF>
 </metadata>
 <defs>
  <style type="text/css">*{stroke-linejoin: round; stroke-linecap: butt}</style>
 </defs>
 <g id="figure_1">
  <g id="patch_1">
   <path d="M 0 213.016641 
L 220.280781 213.016641 
L 220.280781 0 
L 0 0 
z
" style="fill: #ffffff"/>
  </g>
  <g id="axes_1">
   <g id="patch_2">
    <path d="M 37.074688 180.299453 
L 207.514687 180.299453 
L 207.514687 9.859453 
L 37.074688 9.859453 
z
" style="fill: #ffffff"/>
   </g>
   <g id="matplotlib.axis_1">
    <g id="xtick_1">
     <g id="line2d_1">
      <defs>
       <path id="m70146c146e" d="M 0 0 
L 0 3.5 
" style="stroke: #000000; stroke-width: 0.8"/>
      </defs>
      <g>
       <use xlink:href="#m70146c146e" x="37.074688" y="180.299453" style="stroke: #000000; stroke-width: 0.8"/>
      </g>
     </g>
     <g id="text_1">
      <text style="font-size: 7px; font-family: 'Liberation Serif'; text-anchor: middle" x="37.074688" y="192.618359" transform="rotate(-0 37.074688 192.618359)">0.0</text>
     </g>
    </g>
    <g id="xtick_2">
     <g id="line2d_2">
      <g>
       <use xlink:href="#m70146c146e" x="71.162688" y="180.299453" style="stroke: #000000; stroke-width: 0.8"/>
      </g>
     </g>
     <g id="text_2">
      <text style="font-size: 7px; font-family: 'Liberation Serif'; text-anchor: middle" x="71.162688" y="192.618359" transform="rotate(-0 71.162688 192.618359)">0.2</text>
     </g>
    </g>
    <g id="xtick_3">
     <g id="line2d_3">
      <g>
       <use xlink:href="#m70146c146e" x="105.250687" y="180.299453" style="stroke: #000000; stroke-width: 0.8"/>
      </g>
     </g>
     <g id="text_3">
      <text style="font-size: 7px; font-family: 'Liberation Serif'; text-anchor: middle" x="105.250687" y="192.618359" transform="rotate(-0 105.250687 192.618359)">0.4</text>
     </g>
    </g>
    <g id="xtick_4">
     <g id="line2d_4">
      <g>
       <use xlink:href="#m70146c146e" x="139.338687" y="180.299453" style="stroke: #000000; stroke-width: 0.8"/>
      </g>
     </g>
     <g id="text_4">
      <text style="font-size: 7px; font-family: 'Liberation Serif'; text-anchor: middle" x="139.338687" y="192.618359" transform="rotate(-0 139.338687 192.618359)">0.6</text>
     </g>
    </g>
    <g id="xtick_5">
     <g id="line2d_5">
      <g>
       <use xlink:href="#m70146c146e" x="173.426687" y="180.299453" style="stroke: #000000; stroke-width: 0.8"/>
      </g>
     </g>
     <g id="text_5">
      <text style="font-size: 7px; font-family: 'Liberation Serif'; text-anchor: middle" x="173.426687" y="192.618359" transform="rotate(-0 173.426687 192.618359)">0.8</text>
     </g>
    </g>
    <g id="xtick_6">
     <g id="line2d_6">
      <g>
       <use xlink:href="#m70146c146e" x="207.514687" y="180.299453" style="stroke: #000000; stroke-width: 0.8"/>
      </g>
     </g>
     <g id="text_6">
      <text style="font-size: 7px; font-family: 'Liberation Serif'; text-anchor: middle" x="207.514687" y="192.618359" transform="rotate(-0 207.514687 192.618359)">1.0</text>
     </g>
    </g>
    <g id="text_7">
     <text style="font-size: 8px; font-family: 'Liberation Serif'; text-anchor: middle" x="122.294687" y="204.152891" transform="rotate(-0 122.294687 204.152891)">Predicted probability</text>
    </g>
   </g>
   <g id="matplotlib.axis_2">
    <g id="ytick_1">
     <g id="line2d_7">
      <defs>
       <path id="mc9162b83ea" d="M 0 0 
L -3.5 0 
" style="stroke: #000000; stroke-width: 0.8"/>
      </defs>
      <g>
       <use xlink:href="#mc9162b83ea" x="37.074688" y="180.299453" style="stroke: #000000; stroke-width: 0.8"/>
      </g>
     </g>
     <g id="text_8">
      <text style="font-size: 7px; font-family: 'Liberation Serif'; text-anchor: end" x="30.074688" y="182.958906" transform="rotate(-0 30.074688 182.958906)">0.0</text>
     </g>
    </g>
    <g id="ytick_2">
     <g id="line2d_8">
      <g>
       <use xlink:href="#mc9162b83ea" x="37.074688" y="146.211453" style="stroke: #000000; stroke-width: 0.8"/>
      </g>
     </g>
     <g id="text_9">
      <text style="font-size: 7px; font-family: 'Liberation Serif'; text-anchor: end" x="30.074688" y="148.870906" transform="rotate(-0 30.074688 148.870906)">0.2</text>
     </g>
    </g>
    <g id="ytick_3">
     <g id="line2d_9">
      <g>
       <use xlink:href="#mc9162b83ea" x="37.074688" y="112.123453" style="stroke: #000000; stroke-width: 0.8"/>
      </g>
     </g>
     <g id="text_10">
      <text style="font-size: 7px; font-family: 'Liberation Serif'; text-anchor: end" x="30.074688" y="114.782906" transform="rotate(-0 30.074688 114.782906)">0.4</text>
     </g>
    </g>
    <g id="ytick_4">
     <g id="line2d_10">
      <g>
       <use xlink:href="#mc9162b83ea" x="37.074688" y="78.035453" style="stroke: #000000; stroke-width: 0.8"/>
      </g>
     </g>
     <g id="text_11">
      <text style="font-size: 7px; font-family: 'Liberation Serif'; text-anchor: end" x="30.074688" y="80.694906" transform="rotate(-0 30.074688 80.694906)">0.6</text>
     </g>
    </g>
    <g id="ytick_5">
     <g id="line2d_11">
      <g>
       <use xlink:href="#mc9162b83ea" x="37.074688" y="43.947453" style="stroke: #000000; stroke-width: 0.8"/>
      </g>
     </g>
     <g id="text_12">
      <text style="font-size: 7px; font-family: 'Liberation Serif'; text-anchor: end" x="30.074688" y="46.606906" transform="rotate(-0 30.074688 46.606906)">0.8</text>
     </g>
    </g>
    <g id="ytick_6">
     <g id="line2d_12">
      <g>
       <use xlink:href="#mc9162b83ea" x="37.074688" y="9.859453" style="stroke: #000000; stroke-width: 0.8"/>
      </g>
     </g>
     <g id="text_13">
      <text style="font-size: 7px; font-family: 'Liberation Serif'; text-anchor: end" x="30.074688" y="12.518906" transform="rotate(-0 30.074688 12.518906)">1.0</text>
     </g>
    </g>
    <g id="text_14">
     <text style="font-size: 8px; font-family: 'Liberation Serif'; text-anchor: middle" x="13.27875" y="95.079453" transform="rotate(-90 13.27875 95.079453)">Observed frequency</text>
    </g>
   </g>
   <g id="line2d_13">
    <path d="M 37.074688 180.299453 
L 207.514687 9.859453 
" clip-path="url(#pdff5269799)" style="fill: none; stroke-dasharray: 2.96,1.28; stroke-dashoffset: 0; stroke: #9ca3af; stroke-width: 0.8"/>
   </g>
   <g id="line2d_14">
    <path d="M 38.07065 171.985307 
L 41.042089 180.299453 
L 43.833301 176.14238 
L 48.285281 180.299453 
L 53.230341 171.985307 
L 62.604368 171.777453 
L 79.107333 159.514087 
L 110.643303 159.514087 
L 170.298398 80.529697 
L 205.699331 43.116038 
" clip-path="url(#pdff5269799)" style="fill: none; stroke: #6366f1; stroke-width: 1.2; stroke-linecap: square"/>
    <defs>
     <path id="me49441acbe" d="M 0 1.5 
C 0.397805 1.5 0.77937 1.341951 1.06066 1.06066 
C 1.341951 0.77937 1.5 0.397805 1.5 0 
C 1.5 -0.397805 1.341951 -0.77937 1.06066 -1.06066 
C 0.77937 -1.341951 0.397805 -1.5 0 -1.5 
C -0.397805 -1.5 -0.77937 -1.341951 -1.06066 -1.06066 
C -1.341951 -0.77937 -1.5 -0.397805 -1.5 0 
C -1.5 0.397805 -1.341951 0.77937 -1.06066 1.06066 
C -0.77937 1.341951 -0.397805 1.5 0 1.5 
z
" style="stroke: #6366f1"/>
    </defs>
    <g clip-path="url(#pdff5269799)">
     <use xlink:href="#me49441acbe" x="38.07065" y="171.985307" style="fill: #6366f1; stroke: #6366f1"/>
     <use xlink:href="#me49441acbe" x="41.042089" y="180.299453" style="fill: #6366f1; stroke: #6366f1"/>
     <use xlink:href="#me49441acbe" x="43.833301" y="176.14238" style="fill: #6366f1; stroke: #6366f1"/>
     <use xlink:href="#me49441acbe" x="48.285281" y="180.299453" style="fill: #6366f1; stroke: #6366f1"/>
     <use xlink:href="#me49441acbe" x="53.230341" y="171.985307" style="fill: #6366f1; stroke: #6366f1"/>
     <use xlink:href="#me49441acbe" x="62.604368" y="171.777453" style="fill: #6366f1; stroke: #6366f1"/>
     <use xlink:href="#me49441acbe" x="79.107333" y="159.514087" style="fill: #6366f1; stroke: #6366f1"/>
     <use xlink:href="#me49441acbe" x="110.643303" y="159.514087" style="fill: #6366f1; stroke: #6366f1"/>
     <use xlink:href="#me49441acbe" x="170.298398" y="80.529697" style="fill: #6366f1; stroke: #6366f1"/>
     <use xlink:href="#me49441acbe" x="205.699331" y="43.116038" style="fill: #6366f1; stroke: #6366f1"/>
    </g>
   </g>
   <g id="line2d_15">
    <path d="M 39.145167 180.299453 
L 41.883975 171.985307 
L 45.253112 180.299453 
L 49.646315 180.299453 
L 55.847888 180.299453 
L 63.3971 163.255453 
L 77.791164 180.299453 
L 102.36131 159.514087 
L 132.724539 76.372624 
L 172.641124 22.330673 
" clip-path="url(#pdff5269799)" style="fill: none; stroke: #10b981; stroke-width: 1.2; stroke-linecap: square"/>
    <defs>
     <path id="m98f08be79d" d="M 0 1.5 
C 0.397805 1.5 0.77937 1.341951 1.06066 1.06066 
C 1.341951 0.77937 1.5 0.397805 1.5 0 
C 1.5 -0.397805 1.341951 -0.77937 1.06066 -1.06066 
C 0.77937 -1.341951 0.397805 -1.5 0 -1.5 
C -0.397805 -1.5 -0.77937 -1.341951 -1.06066 -1.06066 
C -1.341951 -0.77937 -1.5 -0.397805 -1.5 0 
C -1.5 0.397805 -1.341951 0.77937 -1.06066 1.06066 
C -0.77937 1.341951 -0.397805 1.5 0 1.5 
z
" style="stroke: #10b981"/>
    </defs>
    <g clip-path="url(#pdff5269799)">
     <use xlink:href="#m98f08be79d" x="39.145167" y="180.299453" style="fill: #10b981; stroke: #10b981"/>
     <use xlink:href="#m98f08be79d" x="41.883975" y="171.985307" style="fill: #10b981; stroke: #10b981"/>
     <use xlink:href="#m98f08be79d" x="45.253112" y="180.299453" style="fill: #10b981; stroke: #10b981"/>
     <use xlink:href="#m98f08be79d" x="49.646315" y="180.299453" style="fill: #10b981; stroke: #10b981"/>
     <use xlink:href="#m98f08be79d" x="55.847888" y="180.299453" style="fill: #10b981; stroke: #10b981"/>
     <use xlink:href="#m98f08be79d" x="63.3971" y="163.255453" style="fill: #10b981; stroke: #10b981"/>
     <use xlink:href="#m98f08be79d" x="77.791164" y="180.299453" style="fill: #10b981; stroke: #10b981"/>
     <use xlink:href="#m98f08be79d" x="102.36131" y="159.514087" style="fill: #10b981; stroke: #10b981"/>
     <use xlink:href="#m98f08be79d" x="132.724539" y="76.372624" style="fill: #10b981; stroke: #10b981"/>
     <use xlink:href="#m98f08be79d" x="172.641124" y="22.330673" style="fill: #10b981; stroke: #10b981"/>
    </g>
   </g>
   <g id="line2d_16">
    <path d="M 37.093233 176.14238 
L 37.114426 180.299453 
L 37.148269 176.14238 
L 37.221914 180.299453 
L 37.374933 180.299453 
L 37.8114 167.516453 
L 39.994466 180.299453 
L 56.659829 159.514087 
L 147.071252 68.058478 
L 205.79073 26.487746 
" clip-path="url(#pdff5269799)" style="fill: none; stroke: #f97316; stroke-width: 1.2; stroke-linecap: square"/>
    <defs>
     <path id="m7b09afdb9d" d="M 0 1.5 
C 0.397805 1.5 0.77937 1.341951 1.06066 1.06066 
C 1.341951 0.77937 1.5 0.397805 1.5 0 
C 1.5 -0.397805 1.341951 -0.77937 1.06066 -1.06066 
C 0.77937 -1.341951 0.397805 -1.5 0 -1.5 
C -0.397805 -1.5 -0.77937 -1.341951 -1.06066 -1.06066 
C -1.341951 -0.77937 -1.5 -0.397805 -1.5 0 
C -1.5 0.397805 -1.341951 0.77937 -1.06066 1.06066 
C -0.77937 1.341951 -0.397805 1.5 0 1.5 
z
" style="stroke: #f97316"/>
    </defs>
    <g clip-path="url(#pdff5269799)">
     <use xlink:href="#m7b09afdb9d" x="37.093233" y="176.14238" style="fill: #f97316; stroke: #f97316"/>
     <use xlink:href="#m7b09afdb9d" x="37.114426" y="180.299453" style="fill: #f97316; stroke: #f97316"/>
     <use xlink:href="#m7b09afdb9d" x="37.148269" y="176.14238" style="fill: #f97316; stroke: #f97316"/>
     <use xlink:href="#m7b09afdb9d" x="37.221914" y="180.299453" style="fill: #f97316; stroke: #f97316"/>
     <use xlink:href="#m7b09afdb9d" x="37.374933" y="180.299453" style="fill: #f97316; stroke: #f97316"/>
     <use xlink:href="#m7b09afdb9d" x="37.8114" y="167.516453" style="fill: #f97316; stroke: #f97316"/>
     <use xlink:href="#m7b09afdb9d" x="39.994466" y="180.299453" style="fill: #f97316; stroke: #f97316"/>
     <use xlink:href="#m7b09afdb9d" x="56.659829" y="159.514087" style="fill: #f97316; stroke: #f97316"/>
     <use xlink:href="#m7b09afdb9d" x="147.071252" y="68.058478" style="fill: #f97316; stroke: #f97316"/>
     <use xlink:href="#m7b09afdb9d" x="205.79073" y="26.487746" style="fill: #f97316; stroke: #f97316"/>
    </g>
   </g>
   <g id="patch_3">
    <path d="M 37.074688 180.299453 
L 37.074688 9.859453 
" style="fill: none; stroke: #000000; stroke-width: 0.6; stroke-linejoin: miter; stroke-linecap: square"/>
   </g>
   <g id="patch_4">
    <path d="M 37.074688 180.299453 
L 207.514687 180.299453 
" style="fill: none; stroke: #000000; stroke-width: 0.6; stroke-linejoin: miter; stroke-linecap: square"/>
   </g>
   <g id="legend_1">
    <g id="line2d_17">
     <path d="M 43.374688 19.028359 
L 50.374688 19.028359 
L 57.374688 19.028359 
" style="fill: none; stroke-dasharray: 2.96,1.28; stroke-dashoffset: 0; stroke: #9ca3af; stroke-width: 0.8"/>
    </g>
    <g id="text_15">
     <text style="font-size: 7px; font-family: 'Liberation Serif'; text-anchor: start" x="62.974688" y="21.478359" transform="rotate(-0 62.974688 21.478359)">Perfect calibration</text>
    </g>
    <g id="line2d_18">
     <path d="M 43.374688 29.303047 
L 50.374688 29.303047 
L 57.374688 29.303047 
" style="fill: none; stroke: #6366f1; stroke-width: 1.2; stroke-linecap: square"/>
     <g>
      <use xlink:href="#me49441acbe" x="50.374688" y="29.303047" style="fill: #6366f1; stroke: #6366f1"/>
     </g>
    </g>
    <g id="text_16">
     <text style="font-size: 7px; font-family: 'Liberation Serif'; text-anchor: start" x="62.974688" y="31.753047" transform="rotate(-0 62.974688 31.753047)">Logistic Regression</text>
    </g>
    <g id="line2d_19">
     <path d="M 43.374688 39.577734 
L 50.374688 39.577734 
L 57.374688 39.577734 
" style="fill: none; stroke: #10b981; stroke-width: 1.2; stroke-linecap: square"/>
     <g>
      <use xlink:href="#m98f08be79d" x="50.374688" y="39.577734" style="fill: #10b981; stroke: #10b981"/>
     </g>
    </g>
    <g id="text_17">
     <text style="font-size: 7px; font-family: 'Liberation Serif'; text-anchor: start" x="62.974688" y="42.027734" transform="rotate(-0 62.974688 42.027734)">Random Forest</text>
    </g>
    <g id="line2d_20">
     <path d="M 43.374688 49.852422 
L 50.374688 49.852422 
L 57.374688 49.852422 
" style="fill: none; stroke: #f97316; stroke-width: 1.2; stroke-linecap: square"/>
     <g>
      <use xlink:href="#m7b09afdb9d" x="50.374688" y="49.852422" style="fill: #f97316; stroke: #f97316"/>
     </g>
    </g>
    <g id="text_18">
     <text style="font-size: 7px; font-family: 'Liberation Serif'; text-anchor: start" x="62.974688" y="52.302422" transform="rotate(-0 62.974688 52.302422)">XGBoost</text>
    </g>
   </g>
  </g>
 </g>
 <defs>
  <clipPath id="pdff5269799">
   <rect x="37.074688" y="9.859453" width="170.44" height="170.44"/>
  </clipPath>
 </defs>
</svg>
