<?xml version="1.0" encoding="utf-8" standalone="no"?>
<!DOCTYPE svg PUBLIC "-//W3C//DTD SVG 1.1//EN"
  "http://www.w3.org/Graphics/SVG/1.1/DTD/svg11.dtd">
<svg xmlns:xlink="http://www.w3.org/1999/xlink" width="220.280781pt" height="213.016641pt" viewBox="0 0 220.280781 213.016641" xmlns="http://www.w3.org/2000/svg" version="1.1">
 <metadata>
  <rdf:RDF xmlns:dc="http://purl.org/dc/elements/1.1/" xmlns:cc="http://creativecommons.org/ns#" xmlns:rdf="http://www.w3.org/1999/02/22-rdf-syntax-ns#">
   <cc:Work>
    <dc:type rdf:resource="http://purl.org/dc/dcmitype/StillImage"/>
    <dc:date>2026-05-21T17:10:48.473826</dc:date>
    <dc:format>image/svg+xml</dc:format>
    <dc:creator>
     <cc:Agent>
      <dc:title>Matplotlib v3.10.9, https://matplotlib.org/</dc:title>
     </cc:Agent>
    </dc:creator>
   </cc:Work>
  </rdf:RDF>
 </metadata>
 <defs>
  <style type="text/css">*{stroke-linejoin: round; stroke-linecap: butt}</style>
 </defs>
 <g id="figure_1">
  <g id="patch_1">
   <path d="M 0 213.016641 
L 220.280781 213.016641 
L 220.280781 0 
L 0 0 
z
" style="fill: #ffffff"/>
  </g>
  <g id="axes_1">
   <g id="patch_2">
    <path d="M 37.074688 180.299453 
L 207.514687 180.299453 
L 207.514687 9.859453 
L 37.074688 9.859453 
z
" style="fill: #ffffff"/>
   </g>
   <g id="matplotlib.axis_1">
    <g id="xtick_1">
     <g id="line2d_1">
      <defs>
       <path id="m2d34f562a8" d="M 0 0 
L 0 3.5 
" style="stroke: #000000; stroke-width: 0.8"/>
      </defs>
      <g>
       <use xlink:href="#m2d34f562a8" x="37.074688" y="180.299453" style="stroke: #000000; stroke-width: 0.8"/>
      </g>
     </g>
     <g id="text_1">
      <text style="font-size: 7px; font-family: 'Liberation Serif'; text-anchor: middle" x="37.074688" y="192.618359" transform="rotate(-0 37.074688 192.618359)">0.0</text>
     </g>
    </g>
    <g id="xtick_2">
     <g id="line2d_2">
      <g>
       <use xlink:href="#m2d34f562a8" x="71.162688" y="180.299453" style="stroke: #000000; stroke-width: 0.8"/>
      </g>
     </g>
     <g id="text_2">
      <text style="font-size: 7px; font-family: 'Liberation Serif'; text-anchor: middle" x="71.162688" y="192.618359" transform="rotate(-0 71.162688 192.618359)">0.2</text>
     </g>
    </g>
    <g id="xtick_3">
     <g id="line2d_3">
      <g>
       <use xlink:href="#m2d34f562a8" x="105.250687" y="180.299453" style="stroke: #000000; stroke-width: 0.8"/>
      </g>
     </g>
     <g id="text_3">
      <text style="font-size: 7px; font-family: 'Liberation Serif'; text-anchor: middle" x="105.250687" y="192.618359" transform="rotate(-0 105.250687 192.618359)">0.4</text>
     </g>
    </g>
    <g id="xtick_4">
     <g id="line2d_4">
      <g>
       <use xlink:href="#m2d34f562a8" x="139.338687" y="180.299453" style="stroke: #000000; stroke-width: 0.8"/>
      </g>
     </g>
     <g id="text_4">
      <text style="font-size: 7px; font-family: 'Liberation Serif'; text-anchor: middle" x="139.338687" y="192.618359" transform="rotate(-0 139.338687 192.618359)">0.6</text>
     </g>
    </g>
    <g id="xtick_5">
     <g id="line2d_5">
      <g>
       <use xlink:href="#m2d34f562a8" x="173.426687" y="180.299453" style="stroke: #000000; stroke-width: 0.8"/>
      </g>
     </g>
     <g id="text_5">
      <text style="font-size: 7px; font-family: 'Liberation Serif'; text-anchor: middle" x="173.426687" y="192.618359" transform="rotate(-0 173.426687 192.618359)">0.8</text>
     </g>
    </g>
    <g id="xtick_6">
     <g id="line2d_6">
      <g>
       <use xlink:href="#m2d34f562a8" x="207.514687" y="180.299453" style="stroke: #000000; stroke-width: 0.8"/>
      </g>
     </g>
     <g id="text_6">
      <text style="font-size: 7px; font-family: 'Liberation Serif'; text-anchor: middle" x="207.514687" y="192.618359" transform="rotate(-0 207.514687 192.618359)">1.0</text>
     </g>
    </g>
    <g id="text_7">
     <text style="font-size: 8px; font-family: 'Liberation Serif'; text-anchor: middle" x="122.294687" y="204.152891" transform="rotate(-0 122.294687 204.152891)">False positive rate</text>
    </g>
   </g>
   <g id="matplotlib.axis_2">
    <g id="ytick_1">
     <g id="line2d_7">
      <defs>
       <path id="mf9a5117f94" d="M 0 0 
L -3.5 0 
" style="stroke: #000000; stroke-width: 0.8"/>
      </defs>
      <g>
       <use xlink:href="#mf9a5117f94" x="37.074688" y="180.299453" style="stroke: #000000; stroke-width: 0.8"/>
      </g>
     </g>
     <g id="text_8">
      <text style="font-size: 7px; font-family: 'Liberation Serif'; text-anchor: end" x="30.074688" y="182.958906" transform="rotate(-0 30.074688 182.958906)">0.0</text>
     </g>
    </g>
    <g id="ytick_2">
     <g id="line2d_8">
      <g>
       <use xlink:href="#mf9a5117f94" x="37.074688" y="146.211453" style="stroke: #000000; stroke-width: 0.8"/>
      </g>
     </g>
     <g id="text_9">
      <text style="font-size: 7px; font-family: 'Liberation Serif'; text-anchor: end" x="30.074688" y="148.870906" transform="rotate(-0 30.074688 148.870906)">0.2</text>
     </g>
    </g>
    <g id="ytick_3">
     <g id="line2d_9">
      <g>
       <use xlink:href="#mf9a5117f94" x="37.074688" y="112.123453" style="stroke: #000000; stroke-width: 0.8"/>
      </g>
     </g>
     <g id="text_10">
      <text style="font-size: 7px; font-family: 'Liberation Serif'; text-anchor: end" x="30.074688" y="114.782906" transform="rotate(-0 30.074688 114.782906)">0.4</text>
     </g>
    </g>
    <g id="ytick_4">
     <g id="line2d_10">
      <g>
       <use xlink:href="#mf9a5117f94" x="37.074688" y="78.035453" style="stroke: #000000; stroke-width: 0.8"/>
      </g>
     </g>
     <g id="text_11">
      <text style="font-size: 7px; font-family: 'Liberation Serif'; text-anchor: end" x="30.074688" y="80.694906" transform="rotate(-0 30.074688 80.694906)">0.6</text>
     </g>
    </g>
    <g id="ytick_5">
     <g id="line2d_11">
      <g>
       <use xlink:href="#mf9a5117f94" x="37.074688" y="43.947453" style="stroke: #000000; stroke-width: 0.8"/>
      </g>
     </g>
     <g id="text_12">
      <text style="font-size: 7px; font-family: 'Liberation Serif'; text-anchor: end" x="30.074688" y="46.606906" transform="rotate(-0 30.074688 46.606906)">0.8</text>
     </g>
    </g>
    <g id="ytick_6">
     <g id="line2d_12">
      <g>
       <use xlink:href="#mf9a5117f94" x="37.074688" y="9.859453" style="stroke: #000000; stroke-width: 0.8"/>
      </g>
     </g>
     <g id="text_13">
      <text style="font-size: 7px; font-family: 'Liberation Serif'; text-anchor: end" x="30.074688" y="12.518906" transform="rotate(-0 30.074688 12.518906)">1.0</text>
     </g>
    </g>
    <g id="text_14">
     <text style="font-size: 8px; font-family: 'Liberation Serif'; text-anchor: middle" x="13.27875" y="95.079453" transform="rotate(-90 13.27875 95.079453)">True positive rate</text>
    </g>
   </g>
   <g id="line2d_13">
    <path d="M 37.074688 180.299453 
L 37.074688 177.99621 
L 37.583464 177.99621 
L 37.583464 175.692967 
L 38.09224 175.692967 
L 38.09224 168.783237 
L 39.109792 168.783237 
L 39.109792 164.17675 
L 39.618568 164.17675 
L 39.618568 138.841075 
L 40.127344 138.841075 
L 40.127344 129.628102 
L 40.63612 129.628102 
L 40.63612 113.505399 
L 41.144896 113.505399 
L 41.144896 76.653507 
L 41.653673 76.653507 
L 41.653673 74.350264 
L 42.162449 74.350264 
L 42.162449 55.924318 
L 43.180001 55.924318 
L 43.180001 53.621075 
L 47.758986 53.621075 
L 47.758986 49.014588 
L 49.79409 49.014588 
L 49.79409 46.711345 
L 52.846747 46.711345 
L 52.846747 44.408102 
L 53.864299 44.408102 
L 53.864299 42.104859 
L 59.969613 42.104859 
L 59.969613 39.801615 
L 65.057374 39.801615 
L 65.057374 37.498372 
L 70.653911 37.498372 
L 70.653911 35.195129 
L 72.689016 35.195129 
L 72.689016 32.891886 
L 76.759225 32.891886 
L 76.759225 30.588642 
L 77.776777 30.588642 
L 77.776777 28.285399 
L 84.899643 28.285399 
L 84.899643 25.982156 
L 87.443523 25.982156 
L 87.443523 23.678913 
L 103.215583 23.678913 
L 103.215583 21.375669 
L 108.303344 21.375669 
L 108.303344 19.072426 
L 125.092956 19.072426 
L 125.092956 16.769183 
L 146.461553 16.769183 
L 146.461553 14.46594 
L 188.181195 14.46594 
L 188.181195 12.162696 
L 197.339165 12.162696 
L 197.339165 9.859453 
L 207.514687 9.859453 
" clip-path="url(#p3969804418)" style="fill: none; stroke: #6366f1; stroke-width: 1.2; stroke-linecap: square"/>
   </g>
   <g id="line2d_14">
    <path d="M 37.074688 180.299453 
L 37.074688 177.99621 
L 37.074688 131.931345 
L 37.583464 131.931345 
L 37.583464 108.898913 
L 38.09224 108.898913 
L 38.09224 101.989183 
L 38.601016 101.989183 
L 38.601016 83.563237 
L 39.109792 83.563237 
L 39.109792 74.350264 
L 39.618568 74.350264 
L 39.618568 72.047021 
L 40.127344 72.047021 
L 40.127344 69.743777 
L 41.144896 69.743777 
L 41.144896 65.137291 
L 41.653673 65.137291 
L 41.653673 60.530804 
L 42.162449 60.530804 
L 42.162449 49.014588 
L 43.180001 49.014588 
L 43.180001 42.104859 
L 43.688777 42.104859 
L 43.688777 39.801615 
L 45.215105 39.801615 
L 45.215105 37.498372 
L 45.723882 37.498372 
L 45.723882 35.195129 
L 47.758986 35.195129 
L 47.758986 32.891886 
L 48.776538 32.891886 
L 48.776538 30.588642 
L 53.355523 30.588642 
L 53.355523 28.285399 
L 54.881852 28.285399 
L 54.881852 25.982156 
L 61.495941 25.982156 
L 61.495941 23.678913 
L 88.461076 23.678913 
L 88.461076 19.072426 
L 89.478628 19.072426 
L 89.478628 16.769183 
L 96.601493 16.769183 
L 96.601493 14.46594 
L 173.935464 14.46594 
L 173.935464 12.162696 
L 186.14609 12.162696 
L 186.14609 9.859453 
L 207.514687 9.859453 
" clip-path="url(#p3969804418)" style="fill: none; stroke: #10b981; stroke-width: 1.2; stroke-linecap: square"/>
   </g>
   <g id="line2d_15">
    <path d="M 37.074688 180.299453 
L 37.074688 177.99621 
L 37.074688 122.718372 
L 37.583464 122.718372 
L 37.583464 120.415129 
L 38.09224 120.415129 
L 38.09224 108.898913 
L 38.601016 108.898913 
L 38.601016 97.382696 
L 39.109792 97.382696 
L 39.109792 83.563237 
L 39.618568 83.563237 
L 39.618568 76.653507 
L 40.127344 76.653507 
L 40.127344 74.350264 
L 40.63612 74.350264 
L 40.63612 65.137291 
L 41.144896 65.137291 
L 41.144896 55.924318 
L 41.653673 55.924318 
L 41.653673 53.621075 
L 42.671225 53.621075 
L 42.671225 49.014588 
L 44.197553 49.014588 
L 44.197553 44.408102 
L 44.706329 44.408102 
L 44.706329 39.801615 
L 45.723882 39.801615 
L 45.723882 32.891886 
L 47.758986 32.891886 
L 47.758986 30.588642 
L 49.79409 30.588642 
L 49.79409 28.285399 
L 51.829195 28.285399 
L 51.829195 25.982156 
L 52.337971 25.982156 
L 52.337971 23.678913 
L 60.478389 23.678913 
L 60.478389 21.375669 
L 85.408419 21.375669 
L 85.408419 16.769183 
L 96.601493 16.769183 
L 96.601493 14.46594 
L 152.05809 14.46594 
L 152.05809 12.162696 
L 190.216299 12.162696 
L 190.216299 9.859453 
L 207.514687 9.859453 
" clip-path="url(#p3969804418)" style="fill: none; stroke: #f97316; stroke-width: 1.2; stroke-linecap: square"/>
   </g>
   <g id="line2d_16">
    <path d="M 37.074688 180.299453 
L 207.514687 9.859453 
" clip-path="url(#p3969804418)" style="fill: none; stroke-dasharray: 2.22,0.96; stroke-dashoffset: 0; stroke: #9ca3af; stroke-width: 0.6"/>
   </g>
   <g id="patch_3">
    <path d="M 37.074688 180.299453 
L 37.074688 9.859453 
" style="fill: none; stroke: #000000; stroke-width: 0.6; stroke-linejoin: miter; stroke-linecap: square"/>
   </g>
   <g id="patch_4">
    <path d="M 37.074688 180.299453 
L 207.514687 180.299453 
" style="fill: none; stroke: #000000; stroke-width: 0.6; stroke-linejoin: miter; stroke-linecap: square"/>
   </g>
   <g id="legend_1">
    <g id="line2d_17">
     <path d="M 56.101875 153.937891 
L 62.101875 153.937891 
L 68.101875 153.937891 
" style="fill: none; stroke: #6366f1; stroke-width: 1.2; stroke-linecap: square"/>
    </g>
    <g id="text_15">
     <text style="font-size: 6px; font-family: 'Liberation Serif'; text-anchor: start" x="72.901875" y="156.037891" transform="rotate(-0 72.901875 156.037891)">Logistic Regression (AUC 0.90 [0.86, 0.95])</text>
    </g>
    <g id="line2d_18">
     <path d="M 56.101875 162.744766 
L 62.101875 162.744766 
L 68.101875 162.744766 
" style="fill: none; stroke: #10b981; stroke-width: 1.2; stroke-linecap: square"/>
    </g>
    <g id="text_16">
     <text style="font-size: 6px; font-family: 'Liberation Serif'; text-anchor: start" x="72.901875" y="164.844766" transform="rotate(-0 72.901875 164.844766)">Random Forest (AUC 0.94 [0.90, 0.97])</text>
    </g>
    <g id="line2d_19">
     <path d="M 56.101875 171.551641 
L 62.101875 171.551641 
L 68.101875 171.551641 
" style="fill: none; stroke: #f97316; stroke-width: 1.2; stroke-linecap: square"/>
    </g>
    <g id="text_17">
     <text style="font-size: 6px; font-family: 'Liberation Serif'; text-anchor: start" x="72.901875" y="173.651641" transform="rotate(-0 72.901875 173.651641)">XGBoost (AUC 0.95 [0.91, 0.98])</text>
    </g>
   </g>
  </g>
 </g>
 <defs>
  <clipPath id="p3969804418">
   <rect x="37.074688" y="9.859453" width="170.44" height="170.44"/>
  </clipPath>
 </defs>
</svg>
