<?xml version="1.0" encoding="utf-8" standalone="no"?>
<!DOCTYPE svg PUBLIC "-//W3C//DTD SVG 1.1//EN"
  "http://www.w3.org/Graphics/SVG/1.1/DTD/svg11.dtd">
<svg xmlns:xlink="http://www.w3.org/1999/xlink" width="249.117188pt" height="184.216641pt" viewBox="0 0 249.117188 184.216641" xmlns="http://www.w3.org/2000/svg" version="1.1">
 <metadata>
  <rdf:RDF xmlns:dc="http://purl.org/dc/elements/1.1/" xmlns:cc="http://creativecommons.org/ns#" xmlns:rdf="http://www.w3.org/1999/02/22-rdf-syntax-ns#">
   <cc:Work>
    <dc:type rdf:resource="http://purl.org/dc/dcmitype/StillImage"/>
    <dc:date>2026-05-21T17:10:48.850892</dc:date>
    <dc:format>image/svg+xml</dc:format>
    <dc:creator>
     <cc:Agent>
      <dc:title>Matplotlib v3.10.9, https://matplotlib.org/</dc:title>
     </cc:Agent>
    </dc:creator>
   </cc:Work>
  </rdf:RDF>
 </metadata>
 <defs>
  <style type="text/css">*{stroke-linejoin: round; stroke-linecap: butt}</style>
 </defs>
 <g id="figure_1">
  <g id="patch_1">
   <path d="M 0 184.216641 
L 249.117188 184.216641 
L 249.117188 0 
L 0 0 
z
" style="fill: #ffffff"/>
  </g>
  <g id="axes_1">
   <g id="patch_2">
    <path d="M 37.074688 151.499453 
L 241.917188 151.499453 
L 241.917188 9.859453 
L 37.074688 9.859453 
z
" style="fill: #ffffff"/>
   </g>
   <g id="FillBetweenPolyCollection_1">
    <defs>
     <path id="m2e258bdec8" d="M 37.074688 -174.357188 
L 37.074688 -174.357188 
L 38.487394 -174.357188 
L 38.487394 -174.357188 
L 42.725515 -174.357188 
L 42.725515 -170.378879 
L 46.963636 -170.378879 
L 46.963636 -169.19958 
L 51.201756 -169.19958 
L 51.201756 -169.19958 
L 55.439877 -169.19958 
L 55.439877 -168.023293 
L 63.916119 -168.023293 
L 63.916119 -166.277673 
L 72.39236 -166.277673 
L 72.39236 -165.120942 
L 80.868601 -165.120942 
L 80.868601 -161.73926 
L 89.344843 -161.73926 
L 89.344843 -161.183849 
L 97.821084 -161.183849 
L 97.821084 -157.837832 
L 106.297325 -157.837832 
L 106.297325 -157.281534 
L 114.773567 -157.281534 
L 114.773567 -153.958115 
L 123.249808 -153.958115 
L 123.249808 -151.161521 
L 140.202291 -151.161521 
L 140.202291 -148.724473 
L 157.154774 -148.724473 
L 157.154774 -146.056576 
L 174.107256 -146.056576 
L 174.107256 -144.564372 
L 191.059739 -144.564372 
L 191.059739 -139.925955 
L 208.012222 -139.925955 
L 208.012222 -134.42371 
L 224.964705 -134.42371 
L 224.964705 -118.119225 
L 241.917188 -118.119225 
L 241.917188 -103.083644 
L 258.86967 -103.083644 
L 258.86967 -47.914075 
L 258.86967 -128.660627 
L 258.86967 -128.660627 
L 258.86967 -127.94546 
L 241.917188 -127.94546 
L 241.917188 -136.450974 
L 224.964705 -136.450974 
L 224.964705 -149.085721 
L 208.012222 -149.085721 
L 208.012222 -153.340054 
L 191.059739 -153.340054 
L 191.059739 -156.79347 
L 174.107256 -156.79347 
L 174.107256 -157.884612 
L 157.154774 -157.884612 
L 157.154774 -159.868086 
L 140.202291 -159.868086 
L 140.202291 -161.686728 
L 123.249808 -161.686728 
L 123.249808 -163.774465 
L 114.773567 -163.774465 
L 114.773567 -166.177401 
L 106.297325 -166.177401 
L 106.297325 -166.568705 
L 97.821084 -166.568705 
L 97.821084 -168.846264 
L 89.344843 -168.846264 
L 89.344843 -169.211032 
L 80.868601 -169.211032 
L 80.868601 -171.311683 
L 72.39236 -171.311683 
L 72.39236 -171.970086 
L 63.916119 -171.970086 
L 63.916119 -172.892393 
L 55.439877 -172.892393 
L 55.439877 -173.44998 
L 51.201756 -173.44998 
L 51.201756 -173.44998 
L 46.963636 -173.44998 
L 46.963636 -173.938065 
L 42.725515 -173.938065 
L 42.725515 -174.357188 
L 38.487394 -174.357188 
L 38.487394 -174.357188 
L 37.074688 -174.357188 
z
" style="stroke: #3b82f6; stroke-opacity: 0.15"/>
    </defs>
    <g clip-path="url(#p3e712a7513)">
     <use xlink:href="#m2e258bdec8" x="0" y="184.216641" style="fill: #3b82f6; fill-opacity: 0.15; stroke: #3b82f6; stroke-opacity: 0.15"/>
    </g>
   </g>
   <g id="FillBetweenPolyCollection_2">
    <defs>
     <path id="m06beef0741" d="M 37.074688 -174.357188 
L 37.074688 -174.357188 
L 38.487394 -174.357188 
L 38.487394 -174.357188 
L 46.963636 -174.357188 
L 46.963636 -161.145045 
L 51.201756 -161.145045 
L 51.201756 -147.044854 
L 55.439877 -147.044854 
L 55.439877 -142.322244 
L 63.916119 -142.322244 
L 63.916119 -133.040272 
L 72.39236 -133.040272 
L 72.39236 -123.96505 
L 80.868601 -123.96505 
L 80.868601 -110.664764 
L 89.344843 -110.664764 
L 89.344843 -108.387276 
L 97.821084 -108.387276 
L 97.821084 -95.145001 
L 106.297325 -95.145001 
L 106.297325 -86.084213 
L 114.773567 -86.084213 
L 114.773567 -76.217614 
L 123.249808 -76.217614 
L 123.249808 -73.698857 
L 140.202291 -73.698857 
L 140.202291 -65.456226 
L 157.154774 -65.456226 
L 157.154774 -60.244019 
L 174.107256 -60.244019 
L 174.107256 -55.944032 
L 191.059739 -55.944032 
L 191.059739 -50.347273 
L 208.012222 -50.347273 
L 208.012222 -50.347273 
L 224.964705 -50.347273 
L 224.964705 -44.151563 
L 241.917188 -44.151563 
L 241.917188 -44.151563 
L 258.86967 -44.151563 
L 258.86967 -44.151563 
L 258.86967 -80.168982 
L 258.86967 -80.168982 
L 258.86967 -80.168982 
L 241.917188 -80.168982 
L 241.917188 -80.168982 
L 224.964705 -80.168982 
L 224.964705 -85.379308 
L 208.012222 -85.379308 
L 208.012222 -85.379308 
L 191.059739 -85.379308 
L 191.059739 -89.812324 
L 174.107256 -89.812324 
L 174.107256 -93.578848 
L 157.154774 -93.578848 
L 157.154774 -99.333007 
L 140.202291 -99.333007 
L 140.202291 -107.647045 
L 123.249808 -107.647045 
L 123.249808 -110.166906 
L 114.773567 -110.166906 
L 114.773567 -119.681249 
L 106.297325 -119.681249 
L 106.297325 -128.164814 
L 97.821084 -128.164814 
L 97.821084 -139.850254 
L 89.344843 -139.850254 
L 89.344843 -141.737303 
L 80.868601 -141.737303 
L 80.868601 -152.30538 
L 72.39236 -152.30538 
L 72.39236 -158.842498 
L 63.916119 -158.842498 
L 63.916119 -164.86863 
L 55.439877 -164.86863 
L 55.439877 -167.631503 
L 51.201756 -167.631503 
L 51.201756 -174.082256 
L 46.963636 -174.082256 
L 46.963636 -174.357188 
L 38.487394 -174.357188 
L 38.487394 -174.357188 
L 37.074688 -174.357188 
z
" style="stroke: #ef4444; stroke-opacity: 0.15"/>
    </defs>
    <g clip-path="url(#p3e712a7513)">
     <use xlink:href="#m06beef0741" x="0" y="184.216641" style="fill: #ef4444; fill-opacity: 0.15; stroke: #ef4444; stroke-opacity: 0.15"/>
    </g>
   </g>
   <g id="matplotlib.axis_1">
    <g id="xtick_1">
     <g id="line2d_1">
      <defs>
       <path id="m7f038378e6" d="M 0 0 
L 0 3.5 
" style="stroke: #000000; stroke-width: 0.8"/>
      </defs>
      <g>
       <use xlink:href="#m7f038378e6" x="37.074688" y="151.499453" style="stroke: #000000; stroke-width: 0.8"/>
      </g>
     </g>
     <g id="text_1">
      <text style="font-size: 7px; font-family: 'Liberation Serif'; text-anchor: middle" x="37.074688" y="163.818359" transform="rotate(-0 37.074688 163.818359)">0</text>
     </g>
    </g>
    <g id="xtick_2">
     <g id="line2d_2">
      <g>
       <use xlink:href="#m7f038378e6" x="65.328825" y="151.499453" style="stroke: #000000; stroke-width: 0.8"/>
      </g>
     </g>
     <g id="text_2">
      <text style="font-size: 7px; font-family: 'Liberation Serif'; text-anchor: middle" x="65.328825" y="163.818359" transform="rotate(-0 65.328825 163.818359)">20</text>
     </g>
    </g>
    <g id="xtick_3">
     <g id="line2d_3">
      <g>
       <use xlink:href="#m7f038378e6" x="93.582963" y="151.499453" style="stroke: #000000; stroke-width: 0.8"/>
      </g>
     </g>
     <g id="text_3">
      <text style="font-size: 7px; font-family: 'Liberation Serif'; text-anchor: middle" x="93.582963" y="163.818359" transform="rotate(-0 93.582963 163.818359)">40</text>
     </g>
    </g>
    <g id="xtick_4">
     <g id="line2d_4">
      <g>
       <use xlink:href="#m7f038378e6" x="121.837101" y="151.499453" style="stroke: #000000; stroke-width: 0.8"/>
      </g>
     </g>
     <g id="text_4">
      <text style="font-size: 7px; font-family: 'Liberation Serif'; text-anchor: middle" x="121.837101" y="163.818359" transform="rotate(-0 121.837101 163.818359)">60</text>
     </g>
    </g>
    <g id="xtick_5">
     <g id="line2d_5">
      <g>
       <use xlink:href="#m7f038378e6" x="150.091239" y="151.499453" style="stroke: #000000; stroke-width: 0.8"/>
      </g>
     </g>
     <g id="text_5">
      <text style="font-size: 7px; font-family: 'Liberation Serif'; text-anchor: middle" x="150.091239" y="163.818359" transform="rotate(-0 150.091239 163.818359)">80</text>
     </g>
    </g>
    <g id="xtick_6">
     <g id="line2d_6">
      <g>
       <use xlink:href="#m7f038378e6" x="178.345377" y="151.499453" style="stroke: #000000; stroke-width: 0.8"/>
      </g>
     </g>
     <g id="text_6">
      <text style="font-size: 7px; font-family: 'Liberation Serif'; text-anchor: middle" x="178.345377" y="163.818359" transform="rotate(-0 178.345377 163.818359)">100</text>
     </g>
    </g>
    <g id="xtick_7">
     <g id="line2d_7">
      <g>
       <use xlink:href="#m7f038378e6" x="206.599515" y="151.499453" style="stroke: #000000; stroke-width: 0.8"/>
      </g>
     </g>
     <g id="text_7">
      <text style="font-size: 7px; font-family: 'Liberation Serif'; text-anchor: middle" x="206.599515" y="163.818359" transform="rotate(-0 206.599515 163.818359)">120</text>
     </g>
    </g>
    <g id="xtick_8">
     <g id="line2d_8">
      <g>
       <use xlink:href="#m7f038378e6" x="234.853653" y="151.499453" style="stroke: #000000; stroke-width: 0.8"/>
      </g>
     </g>
     <g id="text_8">
      <text style="font-size: 7px; font-family: 'Liberation Serif'; text-anchor: middle" x="234.853653" y="163.818359" transform="rotate(-0 234.853653 163.818359)">140</text>
     </g>
    </g>
    <g id="text_9">
     <text style="font-size: 8px; font-family: 'Liberation Serif'; text-anchor: middle" x="139.495937" y="175.352891" transform="rotate(-0 139.495937 175.352891)">Months from baseline</text>
    </g>
   </g>
   <g id="matplotlib.axis_2">
    <g id="ytick_1">
     <g id="line2d_9">
      <defs>
       <path id="m88898c0772" d="M 0 0 
L -3.5 0 
" style="stroke: #000000; stroke-width: 0.8"/>
      </defs>
      <g>
       <use xlink:href="#m88898c0772" x="37.074688" y="151.499453" style="stroke: #000000; stroke-width: 0.8"/>
      </g>
     </g>
     <g id="text_10">
      <text style="font-size: 7px; font-family: 'Liberation Serif'; text-anchor: end" x="30.074688" y="154.158906" transform="rotate(-0 30.074688 154.158906)">0.0</text>
     </g>
    </g>
    <g id="ytick_2">
     <g id="line2d_10">
      <g>
       <use xlink:href="#m88898c0772" x="37.074688" y="123.171453" style="stroke: #000000; stroke-width: 0.8"/>
      </g>
     </g>
     <g id="text_11">
      <text style="font-size: 7px; font-family: 'Liberation Serif'; text-anchor: end" x="30.074688" y="125.830906" transform="rotate(-0 30.074688 125.830906)">0.2</text>
     </g>
    </g>
    <g id="ytick_3">
     <g id="line2d_11">
      <g>
       <use xlink:href="#m88898c0772" x="37.074688" y="94.843453" style="stroke: #000000; stroke-width: 0.8"/>
      </g>
     </g>
     <g id="text_12">
      <text style="font-size: 7px; font-family: 'Liberation Serif'; text-anchor: end" x="30.074688" y="97.502906" transform="rotate(-0 30.074688 97.502906)">0.4</text>
     </g>
    </g>
    <g id="ytick_4">
     <g id="line2d_12">
      <g>
       <use xlink:href="#m88898c0772" x="37.074688" y="66.515453" style="stroke: #000000; stroke-width: 0.8"/>
      </g>
     </g>
     <g id="text_13">
      <text style="font-size: 7px; font-family: 'Liberation Serif'; text-anchor: end" x="30.074688" y="69.174906" transform="rotate(-0 30.074688 69.174906)">0.6</text>
     </g>
    </g>
    <g id="ytick_5">
     <g id="line2d_13">
      <g>
       <use xlink:href="#m88898c0772" x="37.074688" y="38.187453" style="stroke: #000000; stroke-width: 0.8"/>
      </g>
     </g>
     <g id="text_14">
      <text style="font-size: 7px; font-family: 'Liberation Serif'; text-anchor: end" x="30.074688" y="40.846906" transform="rotate(-0 30.074688 40.846906)">0.8</text>
     </g>
    </g>
    <g id="ytick_6">
     <g id="line2d_14">
      <g>
       <use xlink:href="#m88898c0772" x="37.074688" y="9.859453" style="stroke: #000000; stroke-width: 0.8"/>
      </g>
     </g>
     <g id="text_15">
      <text style="font-size: 7px; font-family: 'Liberation Serif'; text-anchor: end" x="30.074688" y="12.518906" transform="rotate(-0 30.074688 12.518906)">1.0</text>
     </g>
    </g>
    <g id="text_16">
     <text style="font-size: 8px; font-family: 'Liberation Serif'; text-anchor: middle" x="13.27875" y="80.679453" transform="rotate(-90 13.27875 80.679453)">Probability of not reaching HY 3</text>
    </g>
   </g>
   <g id="line2d_15">
    <path d="M 37.074688 9.859453 
L 38.487394 9.859453 
L 38.487394 9.859453 
L 42.725515 9.859453 
L 42.725515 11.154941 
L 46.963636 11.154941 
L 46.963636 12.029362 
L 51.201756 12.029362 
L 51.201756 12.029362 
L 55.439877 12.029362 
L 55.439877 12.914886 
L 63.916119 12.914886 
L 63.916119 14.264736 
L 72.39236 14.264736 
L 72.39236 15.179634 
L 80.868601 15.179634 
L 80.868601 17.942873 
L 89.344843 17.942873 
L 89.344843 18.406611 
L 97.821084 18.406611 
L 97.821084 21.238374 
L 106.297325 21.238374 
L 106.297325 21.715521 
L 114.773567 21.715521 
L 114.773567 24.599608 
L 123.249808 24.599608 
L 123.249808 27.058908 
L 140.202291 27.058908 
L 140.202291 29.195226 
L 157.154774 29.195226 
L 157.154774 31.52483 
L 174.107256 31.52483 
L 174.107256 32.81488 
L 191.059739 32.81488 
L 191.059739 36.860945 
L 208.012222 36.860945 
L 208.012222 41.754052 
L 224.964705 41.754052 
L 224.964705 56.265841 
L 241.917188 56.265841 
L 241.917188 67.879696 
L 250.117188 67.879696 
" clip-path="url(#p3e712a7513)" style="fill: none; stroke: #3b82f6; stroke-width: 1.2; stroke-linecap: square"/>
   </g>
   <g id="line2d_16">
    <path d="M 37.074688 9.859453 
L 38.487394 9.859453 
L 38.487394 9.859453 
L 46.963636 9.859453 
L 46.963636 11.799727 
L 51.201756 11.799727 
L 51.201756 23.605338 
L 55.439877 23.605338 
L 55.439877 27.540541 
L 63.916119 27.540541 
L 63.916119 35.53789 
L 72.39236 35.53789 
L 72.39236 43.675544 
L 80.868601 43.675544 
L 80.868601 56.116764 
L 89.344843 56.116764 
L 89.344843 58.284553 
L 97.821084 58.284553 
L 97.821084 71.291283 
L 106.297325 71.291283 
L 106.297325 80.457931 
L 114.773567 80.457931 
L 114.773567 90.60672 
L 123.249808 90.60672 
L 123.249808 93.25423 
L 140.202291 93.25423 
L 140.202291 101.991013 
L 157.154774 101.991013 
L 157.154774 107.815536 
L 174.107256 107.815536 
L 174.107256 112.183928 
L 191.059739 112.183928 
L 191.059739 117.800431 
L 208.012222 117.800431 
L 208.012222 117.800431 
L 224.964705 117.800431 
L 224.964705 124.540236 
L 241.917188 124.540236 
L 241.917188 124.540236 
L 250.117188 124.540236 
" clip-path="url(#p3e712a7513)" style="fill: none; stroke: #ef4444; stroke-width: 1.2; stroke-linecap: square"/>
   </g>
   <g id="patch_3">
    <path d="M 37.074688 151.499453 
L 37.074688 9.859453 
" style="fill: none; stroke: #000000; stroke-width: 0.6; stroke-linejoin: miter; stroke-linecap: square"/>
   </g>
   <g id="patch_4">
    <path d="M 37.074688 151.499453 
L 241.917188 151.499453 
" style="fill: none; stroke: #000000; stroke-width: 0.6; stroke-linejoin: miter; stroke-linecap: square"/>
   </g>
   <g id="legend_1">
    <g id="line2d_17">
     <path d="M 43.374688 131.018984 
L 50.374688 131.018984 
L 50.374688 131.018984 
L 57.374688 131.018984 
L 57.374688 131.018984 
" style="fill: none; stroke: #3b82f6; stroke-width: 1.2; stroke-linecap: square"/>
    </g>
    <g id="text_17">
     <text style="font-size: 7px; font-family: 'Liberation Serif'; text-anchor: start" x="62.974688" y="133.468984" transform="rotate(-0 62.974688 133.468984)">Slow (n=334)</text>
    </g>
    <g id="line2d_18">
     <path d="M 43.374688 141.293672 
L 50.374688 141.293672 
L 50.374688 141.293672 
L 57.374688 141.293672 
L 57.374688 141.293672 
" style="fill: none; stroke: #ef4444; stroke-width: 1.2; stroke-linecap: square"/>
    </g>
    <g id="text_18">
     <text style="font-size: 7px; font-family: 'Liberation Serif'; text-anchor: start" x="62.974688" y="143.743672" transform="rotate(-0 62.974688 143.743672)">Fast (n=74)</text>
    </g>
   </g>
  </g>
 </g>
 <defs>
  <clipPath id="p3e712a7513">
   <rect x="37.074688" y="9.859453" width="204.8425" height="141.64"/>
  </clipPath>
 </defs>
</svg>
